<?xml version="1.0" encoding="UTF-8"?>
<svg width="360pt" height="360pt" version="1.2" viewBox="0 0 721 721" xmlns="http://www.w3.org/2000/svg" xmlns:cc="http://creativecommons.org/ns#" xmlns:dc="http://purl.org/dc/elements/1.1/" xmlns:rdf="http://www.w3.org/1999/02/22-rdf-syntax-ns#">
 <metadata>
  <rdf:RDF>
   <cc:Work rdf:about="">
    <dc:format>image/svg+xml</dc:format>
    <dc:type rdf:resource="http://purl.org/dc/dcmitype/StillImage"/>
    <dc:title/>
   </cc:Work>
  </rdf:RDF>
 </metadata>
 <rect width="721" height="721" fill="#c2b9a7" stroke-width=".0"/>
 <g transform="translate(-257.73 -35.5)" fill="none" opacity=".4" stroke="#fff" stroke-linejoin="round" stroke-width="1.">
  <path transform="matrix(1 0 0 -1 375.23 756)" d="m-0.0014312 0 18 45 18-45z"/>
  <path transform="matrix(1 0 0 -1 411.23 666)" d="m-0.0014312 0-18-45-18 45z"/>
  <path transform="matrix(1 0 0 -1 348.23 729)" d="m-0.0014312 0 45 18-18-45z"/>
  <path transform="matrix(1 0 0 -1 438.23 693)" d="m-0.0014312 0-45-18 18 45z"/>
  <path transform="matrix(1 0 0 -1 348.23 693)" d="m-0.0014312 0 45-18-45-18.004z"/>
  <path transform="matrix(1 0 0 -1 438.23 729)" d="m-0.0014312 0-45 18 45 17.996z"/>
  <path transform="matrix(1 0 0 -1 375.23 666)" d="m-0.0014312 0 18-45-45 18z"/>
  <path transform="matrix(1 0 0 -1 411.23 756)" d="m-0.0014312 0-18 45 45-18z"/>
  <path transform="matrix(1 0 0 -1 375.23 666)" d="m-0.0014312 0 18 45 18-45z"/>
  <path transform="matrix(1 0 0 -1 411.23 576)" d="m-0.0014312 0-18-45-18 45z"/>
  <path transform="matrix(1 0 0 -1 348.23 639)" d="m-0.0014312 0 45 18-18-45z"/>
  <path transform="matrix(1 0 0 -1 438.23 603)" d="m-0.0014312 0-45-18 18 45z"/>
  <path transform="matrix(1 0 0 -1 348.23 603)" d="m-0.0014312 0 45-18-45-18.004z"/>
  <path transform="matrix(1 0 0 -1 438.23 639)" d="m-0.0014312 0-45 18 45 17.996z"/>
  <path transform="matrix(1 0 0 -1 375.23 576)" d="m-0.0014312 0 18-45-45 18z"/>
  <path transform="matrix(1 0 0 -1 411.23 666)" d="m-0.0014312 0-18 45 45-18z"/>
  <path transform="matrix(1 0 0 -1 285.23 756)" d="m-0.0014312 0 18 45 18-45z"/>
  <path transform="matrix(1 0 0 -1 321.23 666)" d="m-0.0014312 0-18-45-18 45z"/>
  <path transform="matrix(1 0 0 -1 258.23 729)" d="m-0.0014312 0 45 18-18-45z"/>
  <path transform="matrix(1 0 0 -1 348.23 693)" d="m-0.0014312 0-45-18 18 45z"/>
  <path transform="matrix(1 0 0 -1 258.23 693)" d="m-0.0014312 0 45-18-45-18.004z"/>
  <path transform="matrix(1 0 0 -1 348.23 729)" d="m-0.0014312 0-45 18 45 17.996z"/>
  <path transform="matrix(1 0 0 -1 285.23 666)" d="m-0.0014312 0 18-45-45 18z"/>
  <path transform="matrix(1 0 0 -1 321.23 756)" d="m-0.0014312 0-18 45 45-18z"/>
  <path transform="matrix(1 0 0 -1 285.23 666)" d="m-0.0014312 0 18 45 18-45z"/>
  <path transform="matrix(1 0 0 -1 321.23 576)" d="m-0.0014312 0-18-45-18 45z"/>
  <path transform="matrix(1 0 0 -1 258.23 639)" d="m-0.0014312 0 45 18-18-45z"/>
  <path transform="matrix(1 0 0 -1 348.23 603)" d="m-0.0014312 0-45-18 18 45z"/>
  <path transform="matrix(1 0 0 -1 258.23 603)" d="m-0.0014312 0 45-18-45-18.004z"/>
  <path transform="matrix(1 0 0 -1 348.23 639)" d="m-0.0014312 0-45 18 45 17.996z"/>
  <path transform="matrix(1 0 0 -1 285.23 576)" d="m-0.0014312 0 18-45-45 18z"/>
  <path transform="matrix(1 0 0 -1 321.23 666)" d="m-0.0014312 0-18 45 45-18z"/>
  <path transform="matrix(1 0 0 -1 375.23 576)" d="m-0.0014312 0 18 45 18-45z"/>
  <path transform="matrix(1 0 0 -1 411.23 486)" d="m-0.0014312 0-18-45-18 45z"/>
  <path transform="matrix(1 0 0 -1 348.23 549)" d="m-0.0014312 0 45 18-18-45z"/>
  <path transform="matrix(1 0 0 -1 438.23 513)" d="m-0.0014312 0-45-18 18 45z"/>
  <path transform="matrix(1 0 0 -1 348.23 513)" d="m-0.0014312 0 45-18-45-18.004z"/>
  <path transform="matrix(1 0 0 -1 438.23 549)" d="m-0.0014312 0-45 18 45 17.996z"/>
  <path transform="matrix(1 0 0 -1 375.23 486)" d="m-0.0014312 0 18-45-45 18z"/>
  <path transform="matrix(1 0 0 -1 411.23 576)" d="m-0.0014312 0-18 45 45-18z"/>
  <path transform="matrix(1 0 0 -1 375.23 486)" d="m-0.0014312 0 18 45 18-45z"/>
  <path transform="matrix(1 0 0 -1 411.23 396)" d="m-0.0014312 5e-4 -18-45-18 45z"/>
  <path transform="matrix(1 0 0 -1 348.23 459)" d="m-0.0014312 0 45 18-18-45z"/>
  <path transform="matrix(1 0 0 -1 438.23 423)" d="m-0.0014312 0-45-18 18 45z"/>
  <path transform="matrix(1 0 0 -1 348.23 423)" d="m-0.0014312 0 45-18-45-18.004z"/>
  <path transform="matrix(1 0 0 -1 438.23 459)" d="m-0.0014312 0-45 18 45 17.996z"/>
  <path transform="matrix(1 0 0 -1 375.23 396)" d="m-0.0014312 5e-4 18-45-45 18z"/>
  <path transform="matrix(1 0 0 -1 411.23 486)" d="m-0.0014312 0-18 45 45-18z"/>
  <path transform="matrix(1 0 0 -1 285.23 576)" d="m-0.0014312 0 18 45 18-45z"/>
  <path transform="matrix(1 0 0 -1 321.23 486)" d="m-0.0014312 0-18-45-18 45z"/>
  <path transform="matrix(1 0 0 -1 258.23 549)" d="m-0.0014312 0 45 18-18-45z"/>
  <path transform="matrix(1 0 0 -1 348.23 513)" d="m-0.0014312 0-45-18 18 45z"/>
  <path transform="matrix(1 0 0 -1 258.23 513)" d="m-0.0014312 0 45-18-45-18.004z"/>
  <path transform="matrix(1 0 0 -1 348.23 549)" d="m-0.0014312 0-45 18 45 17.996z"/>
  <path transform="matrix(1 0 0 -1 285.23 486)" d="m-0.0014312 0 18-45-45 18z"/>
  <path transform="matrix(1 0 0 -1 321.23 576)" d="m-0.0014312 0-18 45 45-18z"/>
  <path transform="matrix(1 0 0 -1 285.23 486)" d="m-0.0014312 0 18 45 18-45z"/>
  <path transform="matrix(1 0 0 -1 321.23 396)" d="m-0.0014312 5e-4 -18-45-18 45z"/>
  <path transform="matrix(1 0 0 -1 258.23 459)" d="m-0.0014312 0 45 18-18-45z"/>
  <path transform="matrix(1 0 0 -1 348.23 423)" d="m-0.0014312 0-45-18 18 45z"/>
  <path transform="matrix(1 0 0 -1 258.23 423)" d="m-0.0014312 0 45-18-45-18.004z"/>
  <path transform="matrix(1 0 0 -1 348.23 459)" d="m-0.0014312 0-45 18 45 17.996z"/>
  <path transform="matrix(1 0 0 -1 285.23 396)" d="m-0.0014312 5e-4 18-45-45 18z"/>
  <path transform="matrix(1 0 0 -1 321.23 486)" d="m-0.0014312 0-18 45 45-18z"/>
  <path transform="matrix(1 0 0 -1 555.23 756)" d="m-0.0014312 0 18 45 18-45z"/>
  <path transform="matrix(1 0 0 -1 591.23 666)" d="m-0.0014312 0-18-45-18 45z"/>
  <path transform="matrix(1 0 0 -1 528.23 729)" d="m-0.0014312 0 45 18-18-45z"/>
  <path transform="matrix(1 0 0 -1 618.23 693)" d="m-0.0019312 0-45-18 18 45z"/>
  <path transform="matrix(1 0 0 -1 528.23 693)" d="m-0.0014312 0 45-18-45-18.004z"/>
  <path transform="matrix(1 0 0 -1 618.23 729)" d="m-0.0019312 0-45 18 45 17.996z"/>
  <path transform="matrix(1 0 0 -1 555.23 666)" d="m-0.0014312 0 18-45-45 18z"/>
  <path transform="matrix(1 0 0 -1 591.23 756)" d="m-0.0014312 0-18 45 45-18z"/>
  <path transform="matrix(1 0 0 -1 555.23 666)" d="m-0.0014312 0 18 45 18-45z"/>
  <path transform="matrix(1 0 0 -1 591.23 576)" d="m-0.0014312 0-18-45-18 45z"/>
  <path transform="matrix(1 0 0 -1 528.23 639)" d="m-0.0014312 0 45 18-18-45z"/>
  <path transform="matrix(1 0 0 -1 618.23 603)" d="m-0.0019312 0-45-18 18 45z"/>
  <path transform="matrix(1 0 0 -1 528.23 603)" d="m-0.0014312 0 45-18-45-18.004z"/>
  <path transform="matrix(1 0 0 -1 618.23 639)" d="m-0.0019312 0-45 18 45 17.996z"/>
  <path transform="matrix(1 0 0 -1 555.23 576)" d="m-0.0014312 0 18-45-45 18z"/>
  <path transform="matrix(1 0 0 -1 591.23 666)" d="m-0.0014312 0-18 45 45-18z"/>
  <path transform="matrix(1 0 0 -1 465.23 756)" d="m-0.0014312 0 18 45 18-45z"/>
  <path transform="matrix(1 0 0 -1 501.23 666)" d="m-0.0014312 0-18-45-18 45z"/>
  <path transform="matrix(1 0 0 -1 438.23 729)" d="m-0.0014312 0 45 18-18-45z"/>
  <path transform="matrix(1 0 0 -1 528.23 693)" d="m-0.0014312 0-45-18 18 45z"/>
  <path transform="matrix(1 0 0 -1 438.23 693)" d="m-0.0014312 0 45-18-45-18.004z"/>
  <path transform="matrix(1 0 0 -1 528.23 729)" d="m-0.0014312 0-45 18 45 17.996z"/>
  <path transform="matrix(1 0 0 -1 465.23 666)" d="m-0.0014312 0 18-45-45 18z"/>
  <path transform="matrix(1 0 0 -1 501.23 756)" d="m-0.0014312 0-18 45 45-18z"/>
  <path transform="matrix(1 0 0 -1 465.23 666)" d="m-0.0014312 0 18 45 18-45z"/>
  <path transform="matrix(1 0 0 -1 501.23 576)" d="m-0.0014312 0-18-45-18 45z"/>
  <path transform="matrix(1 0 0 -1 438.23 639)" d="m-0.0014312 0 45 18-18-45z"/>
  <path transform="matrix(1 0 0 -1 528.23 603)" d="m-0.0014312 0-45-18 18 45z"/>
  <path transform="matrix(1 0 0 -1 438.23 603)" d="m-0.0014312 0 45-18-45-18.004z"/>
  <path transform="matrix(1 0 0 -1 528.23 639)" d="m-0.0014312 0-45 18 45 17.996z"/>
  <path transform="matrix(1 0 0 -1 465.23 576)" d="m-0.0014312 0 18-45-45 18z"/>
  <path transform="matrix(1 0 0 -1 501.23 666)" d="m-0.0014312 0-18 45 45-18z"/>
  <path transform="matrix(1 0 0 -1 555.23 576)" d="m-0.0014312 0 18 45 18-45z"/>
  <path transform="matrix(1 0 0 -1 591.23 486)" d="m-0.0014312 0-18-45-18 45z"/>
  <path transform="matrix(1 0 0 -1 528.23 549)" d="m-0.0014312 0 45 18-18-45z"/>
  <path transform="matrix(1 0 0 -1 618.23 513)" d="m-0.0019312 0-45-18 18 45z"/>
  <path transform="matrix(1 0 0 -1 528.23 513)" d="m-0.0014312 0 45-18-45-18.004z"/>
  <path transform="matrix(1 0 0 -1 618.23 549)" d="m-0.0019312 0-45 18 45 17.996z"/>
  <path transform="matrix(1 0 0 -1 555.23 486)" d="m-0.0014312 0 18-45-45 18z"/>
  <path transform="matrix(1 0 0 -1 591.23 576)" d="m-0.0014312 0-18 45 45-18z"/>
  <path transform="matrix(1 0 0 -1 555.23 486)" d="m-0.0014312 0 18 45 18-45z"/>
  <path transform="matrix(1 0 0 -1 591.23 396)" d="m-0.0014312 5e-4 -18-45-18 45z"/>
  <path transform="matrix(1 0 0 -1 528.23 459)" d="m-0.0014312 0 45 18-18-45z"/>
  <path transform="matrix(1 0 0 -1 618.23 423)" d="m-0.0019312 0-45-18 18 45z"/>
  <path transform="matrix(1 0 0 -1 528.23 423)" d="m-0.0014312 0 45-18-45-18.004z"/>
  <path transform="matrix(1 0 0 -1 618.23 459)" d="m-0.0019312 0-45 18 45 17.996z"/>
  <path transform="matrix(1 0 0 -1 555.23 396)" d="m-0.0014312 5e-4 18-45-45 18z"/>
  <path transform="matrix(1 0 0 -1 591.23 486)" d="m-0.0014312 0-18 45 45-18z"/>
  <path transform="matrix(1 0 0 -1 465.23 576)" d="m-0.0014312 0 18 45 18-45z"/>
  <path transform="matrix(1 0 0 -1 501.23 486)" d="m-0.0014312 0-18-45-18 45z"/>
  <path transform="matrix(1 0 0 -1 438.23 549)" d="m-0.0014312 0 45 18-18-45z"/>
  <path transform="matrix(1 0 0 -1 528.23 513)" d="m-0.0014312 0-45-18 18 45z"/>
  <path transform="matrix(1 0 0 -1 438.23 513)" d="m-0.0014312 0 45-18-45-18.004z"/>
  <path transform="matrix(1 0 0 -1 528.23 549)" d="m-0.0014312 0-45 18 45 17.996z"/>
  <path transform="matrix(1 0 0 -1 465.23 486)" d="m-0.0014312 0 18-45-45 18z"/>
  <path transform="matrix(1 0 0 -1 501.23 576)" d="m-0.0014312 0-18 45 45-18z"/>
  <path transform="matrix(1 0 0 -1 465.23 486)" d="m-0.0014312 0 18 45 18-45z"/>
  <path transform="matrix(1 0 0 -1 501.23 396)" d="m-0.0014312 5e-4 -18-45-18 45z"/>
  <path transform="matrix(1 0 0 -1 438.23 459)" d="m-0.0014312 0 45 18-18-45z"/>
  <path transform="matrix(1 0 0 -1 528.23 423)" d="m-0.0014312 0-45-18 18 45z"/>
  <path transform="matrix(1 0 0 -1 438.23 423)" d="m-0.0014312 0 45-18-45-18.004z"/>
  <path transform="matrix(1 0 0 -1 528.23 459)" d="m-0.0014312 0-45 18 45 17.996z"/>
  <path transform="matrix(1 0 0 -1 465.23 396)" d="m-0.0014312 5e-4 18-45-45 18z"/>
  <path transform="matrix(1 0 0 -1 501.23 486)" d="m-0.0014312 0-18 45 45-18z"/>
  <path transform="matrix(1 0 0 -1 375.23 396)" d="m-0.0014312 5e-4 18 45 18-45z"/>
  <path transform="matrix(1 0 0 -1 411.23 306)" d="m-0.0014312 5e-4 -18-45-18 45z"/>
  <path transform="matrix(1 0 0 -1 348.23 369)" d="m-0.0014312-5e-4 45 18-18-45z"/>
  <path transform="matrix(1 0 0 -1 438.23 333)" d="m-0.0014312-5e-4 -45-18 18 45z"/>
  <path transform="matrix(1 0 0 -1 348.23 333)" d="m-0.0014312 5e-4 45-18-45-18z"/>
  <path transform="matrix(1 0 0 -1 438.23 369)" d="m-0.0014312 5e-4 -45 18 45 18z"/>
  <path transform="matrix(1 0 0 -1 375.23 306)" d="m-0.0014312-5e-4 18-45-45 18z"/>
  <path transform="matrix(1 0 0 -1 411.23 396)" d="m-0.0014312 5e-4 -18 45 45-18z"/>
  <path transform="matrix(1 0 0 -1 375.23 306)" d="m-0.0014312 5e-4 18 45 18-45z"/>
  <path transform="matrix(1 0 0 -1 411.23 216)" d="m-0.0014312 5e-4 -18-45-18 45z"/>
  <path transform="matrix(1 0 0 -1 348.23 279)" d="m-0.0014312-5e-4 45 18-18-45z"/>
  <path transform="matrix(1 0 0 -1 438.23 243)" d="m-0.0014312-5e-4 -45-18 18 45z"/>
  <path transform="matrix(1 0 0 -1 348.23 243)" d="m-0.0014312 5e-4 45-18-45-18z"/>
  <path transform="matrix(1 0 0 -1 438.23 279)" d="m-0.0014312 5e-4 -45 18 45 18z"/>
  <path transform="matrix(1 0 0 -1 375.23 216)" d="m-0.0014312-5e-4 18-45-45 18z"/>
  <path transform="matrix(1 0 0 -1 411.23 306)" d="m-0.0014312-5e-4 -18 45 45-18z"/>
  <path transform="matrix(1 0 0 -1 285.23 396)" d="m-0.0014312 5e-4 18 45 18-45z"/>
  <path transform="matrix(1 0 0 -1 321.23 306)" d="m-0.0014312 5e-4 -18-45-18 45z"/>
  <path transform="matrix(1 0 0 -1 258.23 369)" d="m-0.0014312-5e-4 45 18-18-45z"/>
  <path transform="matrix(1 0 0 -1 348.23 333)" d="m-0.0014312-5e-4 -45-18 18 45z"/>
  <path transform="matrix(1 0 0 -1 258.23 333)" d="m-0.0014312 5e-4 45-18-45-18z"/>
  <path transform="matrix(1 0 0 -1 348.23 369)" d="m-0.0014312 5e-4 -45 18 45 18z"/>
  <path transform="matrix(1 0 0 -1 285.23 306)" d="m-0.0014312-5e-4 18-45-45 18z"/>
  <path transform="matrix(1 0 0 -1 321.23 396)" d="m-0.0014312 5e-4 -18 45 45-18z"/>
  <path transform="matrix(1 0 0 -1 285.23 306)" d="m-0.0014312 5e-4 18 45 18-45z"/>
  <path transform="matrix(1 0 0 -1 321.23 216)" d="m-0.0014312 5e-4 -18-45-18 45z"/>
  <path transform="matrix(1 0 0 -1 258.23 279)" d="m-0.0014312-5e-4 45 18-18-45z"/>
  <path transform="matrix(1 0 0 -1 348.23 243)" d="m-0.0014312-5e-4 -45-18 18 45z"/>
  <path transform="matrix(1 0 0 -1 258.23 243)" d="m-0.0014312 5e-4 45-18-45-18z"/>
  <path transform="matrix(1 0 0 -1 348.23 279)" d="m-0.0014312 5e-4 -45 18 45 18z"/>
  <path transform="matrix(1 0 0 -1 285.23 216)" d="m-0.0014312-5e-4 18-45-45 18z"/>
  <path transform="matrix(1 0 0 -1 321.23 306)" d="m-0.0014312-5e-4 -18 45 45-18z"/>
  <path transform="matrix(1 0 0 -1 375.23 216)" d="m-0.0014312 5e-4 18 45 18-45z"/>
  <path transform="matrix(1 0 0 -1 411.23 126)" d="m-0.0014312 5e-4 -18-45-18 45z"/>
  <path transform="matrix(1 0 0 -1 348.23 189)" d="m-0.0014312-5e-4 45 18-18-45z"/>
  <path transform="matrix(1 0 0 -1 438.23 153)" d="m-0.0014312-5e-4 -45-18 18 45z"/>
  <path transform="matrix(1 0 0 -1 348.23 153)" d="m-0.0014312 5e-4 45-18-45-18z"/>
  <path transform="matrix(1 0 0 -1 438.23 189)" d="m-0.0014312 5e-4 -45 18 45 18z"/>
  <path transform="matrix(1 0 0 -1 375.23 126)" d="m-0.0014312-5e-4 18-45-45 18z"/>
  <path transform="matrix(1 0 0 -1 411.23 216)" d="m-0.0014312-5e-4 -18 45 45-18z"/>
  <path transform="matrix(1 0 0 -1 375.23 126)" d="m-0.0014312 5e-4 18 45 18-45z"/>
  <path transform="matrix(1 0 0 -1 411.23 36)" d="m-0.0014312 5e-4 -18-45-18 45z"/>
  <path transform="matrix(1 0 0 -1 348.23 99)" d="m-0.0014312-5e-4 45 18-18-45z"/>
  <path transform="matrix(1 0 0 -1 438.23 63)" d="m-0.0014312-5e-4 -45-18 18 45z"/>
  <path transform="matrix(1 0 0 -1 348.23 63)" d="m-0.0014312 5e-4 45-18-45-18z"/>
  <path transform="matrix(1 0 0 -1 438.23 99)" d="m-0.0014312 5e-4 -45 18 45 18z"/>
  <path transform="matrix(1 0 0 -1 375.23 36)" d="m-0.0014312-5e-4 18-45-45 18z"/>
  <path transform="matrix(1 0 0 -1 411.23 126)" d="m-0.0014312-5e-4 -18 45 45-18z"/>
  <path transform="matrix(1 0 0 -1 285.23 216)" d="m-0.0014312 5e-4 18 45 18-45z"/>
  <path transform="matrix(1 0 0 -1 321.23 126)" d="m-0.0014312 5e-4 -18-45-18 45z"/>
  <path transform="matrix(1 0 0 -1 258.23 189)" d="m-0.0014312-5e-4 45 18-18-45z"/>
  <path transform="matrix(1 0 0 -1 348.23 153)" d="m-0.0014312-5e-4 -45-18 18 45z"/>
  <path transform="matrix(1 0 0 -1 258.23 153)" d="m-0.0014312 5e-4 45-18-45-18z"/>
  <path transform="matrix(1 0 0 -1 348.23 189)" d="m-0.0014312 5e-4 -45 18 45 18z"/>
  <path transform="matrix(1 0 0 -1 285.23 126)" d="m-0.0014312-5e-4 18-45-45 18z"/>
  <path transform="matrix(1 0 0 -1 321.23 216)" d="m-0.0014312-5e-4 -18 45 45-18z"/>
  <path transform="matrix(1 0 0 -1 285.23 126)" d="m-0.0014312 5e-4 18 45 18-45z"/>
  <path transform="matrix(1 0 0 -1 321.23 36)" d="m-0.0014312 5e-4 -18-45-18 45z"/>
  <path transform="matrix(1 0 0 -1 258.23 99)" d="m-0.0014312-5e-4 45 18-18-45z"/>
  <path transform="matrix(1 0 0 -1 348.23 63)" d="m-0.0014312-5e-4 -45-18 18 45z"/>
  <path transform="matrix(1 0 0 -1 258.23 63)" d="m-0.0014312 5e-4 45-18-45-18z"/>
  <path transform="matrix(1 0 0 -1 348.23 99)" d="m-0.0014312 5e-4 -45 18 45 18z"/>
  <path transform="matrix(1 0 0 -1 285.23 36)" d="m-0.0014312-5e-4 18-45-45 18z"/>
  <path transform="matrix(1 0 0 -1 321.23 126)" d="m-0.0014312-5e-4 -18 45 45-18z"/>
  <path transform="matrix(1 0 0 -1 555.23 396)" d="m-0.0014312 5e-4 18 45 18-45z"/>
  <path transform="matrix(1 0 0 -1 591.23 306)" d="m-0.0014312 5e-4 -18-45-18 45z"/>
  <path transform="matrix(1 0 0 -1 528.23 369)" d="m-0.0014312-5e-4 45 18-18-45z"/>
  <path transform="matrix(1 0 0 -1 618.23 333)" d="m-0.0019312-5e-4 -45-18 18 45z"/>
  <path transform="matrix(1 0 0 -1 528.23 333)" d="m-0.0014312 5e-4 45-18-45-18z"/>
  <path transform="matrix(1 0 0 -1 618.23 369)" d="m-0.0019312 5e-4 -45 18 45 18z"/>
  <path transform="matrix(1 0 0 -1 555.23 306)" d="m-0.0014312-5e-4 18-45-45 18z"/>
  <path transform="matrix(1 0 0 -1 591.23 396)" d="m-0.0014312 5e-4 -18 45 45-18z"/>
  <path transform="matrix(1 0 0 -1 555.23 306)" d="m-0.0014312 5e-4 18 45 18-45z"/>
  <path transform="matrix(1 0 0 -1 591.23 216)" d="m-0.0014312 5e-4 -18-45-18 45z"/>
  <path transform="matrix(1 0 0 -1 528.23 279)" d="m-0.0014312-5e-4 45 18-18-45z"/>
  <path transform="matrix(1 0 0 -1 618.23 243)" d="m-0.0019312-5e-4 -45-18 18 45z"/>
  <path transform="matrix(1 0 0 -1 528.23 243)" d="m-0.0014312 5e-4 45-18-45-18z"/>
  <path transform="matrix(1 0 0 -1 618.23 279)" d="m-0.0019312 5e-4 -45 18 45 18z"/>
  <path transform="matrix(1 0 0 -1 555.23 216)" d="m-0.0014312-5e-4 18-45-45 18z"/>
  <path transform="matrix(1 0 0 -1 591.23 306)" d="m-0.0014312-5e-4 -18 45 45-18z"/>
  <path transform="matrix(1 0 0 -1 465.23 396)" d="m-0.0014312 5e-4 18 45 18-45z"/>
  <path transform="matrix(1 0 0 -1 501.23 306)" d="m-0.0014312 5e-4 -18-45-18 45z"/>
  <path transform="matrix(1 0 0 -1 438.23 369)" d="m-0.0014312-5e-4 45 18-18-45z"/>
  <path transform="matrix(1 0 0 -1 528.23 333)" d="m-0.0014312-5e-4 -45-18 18 45z"/>
  <path transform="matrix(1 0 0 -1 438.23 333)" d="m-0.0014312 5e-4 45-18-45-18z"/>
  <path transform="matrix(1 0 0 -1 528.23 369)" d="m-0.0014312 5e-4 -45 18 45 18z"/>
  <path transform="matrix(1 0 0 -1 465.23 306)" d="m-0.0014312-5e-4 18-45-45 18z"/>
  <path transform="matrix(1 0 0 -1 501.23 396)" d="m-0.0014312 5e-4 -18 45 45-18z"/>
  <path transform="matrix(1 0 0 -1 465.23 306)" d="m-0.0014312 5e-4 18 45 18-45z"/>
  <path transform="matrix(1 0 0 -1 501.23 216)" d="m-0.0014312 5e-4 -18-45-18 45z"/>
  <path transform="matrix(1 0 0 -1 438.23 279)" d="m-0.0014312-5e-4 45 18-18-45z"/>
  <path transform="matrix(1 0 0 -1 528.23 243)" d="m-0.0014312-5e-4 -45-18 18 45z"/>
  <path transform="matrix(1 0 0 -1 438.23 243)" d="m-0.0014312 5e-4 45-18-45-18z"/>
  <path transform="matrix(1 0 0 -1 528.23 279)" d="m-0.0014312 5e-4 -45 18 45 18z"/>
  <path transform="matrix(1 0 0 -1 465.23 216)" d="m-0.0014312-5e-4 18-45-45 18z"/>
  <path transform="matrix(1 0 0 -1 501.23 306)" d="m-0.0014312-5e-4 -18 45 45-18z"/>
  <path transform="matrix(1 0 0 -1 555.23 216)" d="m-0.0014312 5e-4 18 45 18-45z"/>
  <path transform="matrix(1 0 0 -1 591.23 126)" d="m-0.0014312 5e-4 -18-45-18 45z"/>
  <path transform="matrix(1 0 0 -1 528.23 189)" d="m-0.0014312-5e-4 45 18-18-45z"/>
  <path transform="matrix(1 0 0 -1 618.23 153)" d="m-0.0019312-5e-4 -45-18 18 45z"/>
  <path transform="matrix(1 0 0 -1 528.23 153)" d="m-0.0014312 5e-4 45-18-45-18z"/>
  <path transform="matrix(1 0 0 -1 618.23 189)" d="m-0.0019312 5e-4 -45 18 45 18z"/>
  <path transform="matrix(1 0 0 -1 555.23 126)" d="m-0.0014312-5e-4 18-45-45 18z"/>
  <path transform="matrix(1 0 0 -1 591.23 216)" d="m-0.0014312-5e-4 -18 45 45-18z"/>
  <path transform="matrix(1 0 0 -1 555.23 126)" d="m-0.0014312 5e-4 18 45 18-45z"/>
  <path transform="matrix(1 0 0 -1 591.23 36)" d="m-0.0014312 5e-4 -18-45-18 45z"/>
  <path transform="matrix(1 0 0 -1 528.23 99)" d="m-0.0014312-5e-4 45 18-18-45z"/>
  <path transform="matrix(1 0 0 -1 618.23 63)" d="m-0.0019312-5e-4 -45-18 18 45z"/>
  <path transform="matrix(1 0 0 -1 528.23 63)" d="m-0.0014312 5e-4 45-18-45-18z"/>
  <path transform="matrix(1 0 0 -1 618.23 99)" d="m-0.0019312 5e-4 -45 18 45 18z"/>
  <path transform="matrix(1 0 0 -1 555.23 36)" d="m-0.0014312-5e-4 18-45-45 18z"/>
  <path transform="matrix(1 0 0 -1 591.23 126)" d="m-0.0014312-5e-4 -18 45 45-18z"/>
  <path transform="matrix(1 0 0 -1 465.23 216)" d="m-0.0014312 5e-4 18 45 18-45z"/>
  <path transform="matrix(1 0 0 -1 501.23 126)" d="m-0.0014312 5e-4 -18-45-18 45z"/>
  <path transform="matrix(1 0 0 -1 438.23 189)" d="m-0.0014312-5e-4 45 18-18-45z"/>
  <path transform="matrix(1 0 0 -1 528.23 153)" d="m-0.0014312-5e-4 -45-18 18 45z"/>
  <path transform="matrix(1 0 0 -1 438.23 153)" d="m-0.0014312 5e-4 45-18-45-18z"/>
  <path transform="matrix(1 0 0 -1 528.23 189)" d="m-0.0014312 5e-4 -45 18 45 18z"/>
  <path transform="matrix(1 0 0 -1 465.23 126)" d="m-0.0014312-5e-4 18-45-45 18z"/>
  <path transform="matrix(1 0 0 -1 501.23 216)" d="m-0.0014312-5e-4 -18 45 45-18z"/>
  <path transform="matrix(1 0 0 -1 465.23 126)" d="m-0.0014312 5e-4 18 45 18-45z"/>
  <path transform="matrix(1 0 0 -1 501.23 36)" d="m-0.0014312 5e-4 -18-45-18 45z"/>
  <path transform="matrix(1 0 0 -1 438.23 99)" d="m-0.0014312-5e-4 45 18-18-45z"/>
  <path transform="matrix(1 0 0 -1 528.23 63)" d="m-0.0014312-5e-4 -45-18 18 45z"/>
  <path transform="matrix(1 0 0 -1 438.23 63)" d="m-0.0014312 5e-4 45-18-45-18z"/>
  <path transform="matrix(1 0 0 -1 528.23 99)" d="m-0.0014312 5e-4 -45 18 45 18z"/>
  <path transform="matrix(1 0 0 -1 465.23 36)" d="m-0.0014312-5e-4 18-45-45 18z"/>
  <path transform="matrix(1 0 0 -1 501.23 126)" d="m-0.0014312-5e-4 -18 45 45-18z"/>
  <path transform="matrix(1 0 0 -1 735.23 756)" d="m-0.0019312 0 18 45 18-45z"/>
  <path transform="matrix(1 0 0 -1 771.23 666)" d="m-0.0019312 0-18-45-18 45z"/>
  <path transform="matrix(1 0 0 -1 708.23 729)" d="m-0.0019312 0 45 18-18-45z"/>
  <path transform="matrix(1 0 0 -1 798.23 693)" d="m-0.0019312 0-45-18 18 45z"/>
  <path transform="matrix(1 0 0 -1 708.23 693)" d="m-0.0019312 0 45-18-45-18.004z"/>
  <path transform="matrix(1 0 0 -1 798.23 729)" d="m-0.0019312 0-45 18 45 17.996z"/>
  <path transform="matrix(1 0 0 -1 735.23 666)" d="m-0.0019312 0 18-45-45 18z"/>
  <path transform="matrix(1 0 0 -1 771.23 756)" d="m-0.0019312 0-18 45 45-18z"/>
  <path transform="matrix(1 0 0 -1 735.23 666)" d="m-0.0019312 0 18 45 18-45z"/>
  <path transform="matrix(1 0 0 -1 771.23 576)" d="m-0.0019312 0-18-45-18 45z"/>
  <path transform="matrix(1 0 0 -1 708.23 639)" d="m-0.0019312 0 45 18-18-45z"/>
  <path transform="matrix(1 0 0 -1 798.23 603)" d="m-0.0019312 0-45-18 18 45z"/>
  <path transform="matrix(1 0 0 -1 708.23 603)" d="m-0.0019312 0 45-18-45-18.004z"/>
  <path transform="matrix(1 0 0 -1 798.23 639)" d="m-0.0019312 0-45 18 45 17.996z"/>
  <path transform="matrix(1 0 0 -1 735.23 576)" d="m-0.0019312 0 18-45-45 18z"/>
  <path transform="matrix(1 0 0 -1 771.23 666)" d="m-0.0019312 0-18 45 45-18z"/>
  <path transform="matrix(1 0 0 -1 645.23 756)" d="m-0.0019312 0 18 45 18-45z"/>
  <path transform="matrix(1 0 0 -1 681.23 666)" d="m-0.0019312 0-18-45-18 45z"/>
  <path transform="matrix(1 0 0 -1 618.23 729)" d="m-0.0019312 0 45 18-18-45z"/>
  <path transform="matrix(1 0 0 -1 708.23 693)" d="m-0.0019312 0-45-18 18 45z"/>
  <path transform="matrix(1 0 0 -1 618.23 693)" d="m-0.0019312 0 45-18-45-18.004z"/>
  <path transform="matrix(1 0 0 -1 708.23 729)" d="m-0.0019312 0-45 18 45 17.996z"/>
  <path transform="matrix(1 0 0 -1 645.23 666)" d="m-0.0019312 0 18-45-45 18z"/>
  <path transform="matrix(1 0 0 -1 681.23 756)" d="m-0.0019312 0-18 45 45-18z"/>
  <path transform="matrix(1 0 0 -1 645.23 666)" d="m-0.0019312 0 18 45 18-45z"/>
  <path transform="matrix(1 0 0 -1 681.23 576)" d="m-0.0019312 0-18-45-18 45z"/>
  <path transform="matrix(1 0 0 -1 618.23 639)" d="m-0.0019312 0 45 18-18-45z"/>
  <path transform="matrix(1 0 0 -1 708.23 603)" d="m-0.0019312 0-45-18 18 45z"/>
  <path transform="matrix(1 0 0 -1 618.23 603)" d="m-0.0019312 0 45-18-45-18.004z"/>
  <path transform="matrix(1 0 0 -1 708.23 639)" d="m-0.0019312 0-45 18 45 17.996z"/>
  <path transform="matrix(1 0 0 -1 645.23 576)" d="m-0.0019312 0 18-45-45 18z"/>
  <path transform="matrix(1 0 0 -1 681.23 666)" d="m-0.0019312 0-18 45 45-18z"/>
  <path transform="matrix(1 0 0 -1 735.23 576)" d="m-0.0019312 0 18 45 18-45z"/>
  <path transform="matrix(1 0 0 -1 771.23 486)" d="m-0.0019312 0-18-45-18 45z"/>
  <path transform="matrix(1 0 0 -1 708.23 549)" d="m-0.0019312 0 45 18-18-45z"/>
  <path transform="matrix(1 0 0 -1 798.23 513)" d="m-0.0019312 0-45-18 18 45z"/>
  <path transform="matrix(1 0 0 -1 708.23 513)" d="m-0.0019312 0 45-18-45-18.004z"/>
  <path transform="matrix(1 0 0 -1 798.23 549)" d="m-0.0019312 0-45 18 45 17.996z"/>
  <path transform="matrix(1 0 0 -1 735.23 486)" d="m-0.0019312 0 18-45-45 18z"/>
  <path transform="matrix(1 0 0 -1 771.23 576)" d="m-0.0019312 0-18 45 45-18z"/>
  <path transform="matrix(1 0 0 -1 735.23 486)" d="m-0.0019312 0 18 45 18-45z"/>
  <path transform="matrix(1 0 0 -1 771.23 396)" d="m-0.0019312 5e-4 -18-45-18 45z"/>
  <path transform="matrix(1 0 0 -1 708.23 459)" d="m-0.0019312 0 45 18-18-45z"/>
  <path transform="matrix(1 0 0 -1 798.23 423)" d="m-0.0019312 0-45-18 18 45z"/>
  <path transform="matrix(1 0 0 -1 708.23 423)" d="m-0.0019312 0 45-18-45-18.004z"/>
  <path transform="matrix(1 0 0 -1 798.23 459)" d="m-0.0019312 0-45 18 45 17.996z"/>
  <path transform="matrix(1 0 0 -1 735.23 396)" d="m-0.0019312 5e-4 18-45-45 18z"/>
  <path transform="matrix(1 0 0 -1 771.23 486)" d="m-0.0019312 0-18 45 45-18z"/>
  <path transform="matrix(1 0 0 -1 645.23 576)" d="m-0.0019312 0 18 45 18-45z"/>
  <path transform="matrix(1 0 0 -1 681.23 486)" d="m-0.0019312 0-18-45-18 45z"/>
  <path transform="matrix(1 0 0 -1 618.23 549)" d="m-0.0019312 0 45 18-18-45z"/>
  <path transform="matrix(1 0 0 -1 708.23 513)" d="m-0.0019312 0-45-18 18 45z"/>
  <path transform="matrix(1 0 0 -1 618.23 513)" d="m-0.0019312 0 45-18-45-18.004z"/>
  <path transform="matrix(1 0 0 -1 708.23 549)" d="m-0.0019312 0-45 18 45 17.996z"/>
  <path transform="matrix(1 0 0 -1 645.23 486)" d="m-0.0019312 0 18-45-45 18z"/>
  <path transform="matrix(1 0 0 -1 681.23 576)" d="m-0.0019312 0-18 45 45-18z"/>
  <path transform="matrix(1 0 0 -1 645.23 486)" d="m-0.0019312 0 18 45 18-45z"/>
  <path transform="matrix(1 0 0 -1 681.23 396)" d="m-0.0019312 5e-4 -18-45-18 45z"/>
  <path transform="matrix(1 0 0 -1 618.23 459)" d="m-0.0019312 0 45 18-18-45z"/>
  <path transform="matrix(1 0 0 -1 708.23 423)" d="m-0.0019312 0-45-18 18 45z"/>
  <path transform="matrix(1 0 0 -1 618.23 423)" d="m-0.0019312 0 45-18-45-18.004z"/>
  <path transform="matrix(1 0 0 -1 708.23 459)" d="m-0.0019312 0-45 18 45 17.996z"/>
  <path transform="matrix(1 0 0 -1 645.23 396)" d="m-0.0019312 5e-4 18-45-45 18z"/>
  <path transform="matrix(1 0 0 -1 681.23 486)" d="m-0.0019312 0-18 45 45-18z"/>
  <path transform="matrix(1 0 0 -1 915.23 756)" d="m-0.0019312 0 18 45 18-45z"/>
  <path transform="matrix(1 0 0 -1 951.23 666)" d="m-0.0019312 0-18-45-18 45z"/>
  <path transform="matrix(1 0 0 -1 888.23 729)" d="m-0.0019312 0 45 18-18-45z"/>
  <path transform="matrix(1 0 0 -1 978.23 693)" d="m-0.0019312 0-45-18 18 45z"/>
  <path transform="matrix(1 0 0 -1 888.23 693)" d="m-0.0019312 0 45-18-45-18.004z"/>
  <path transform="matrix(1 0 0 -1 978.23 729)" d="m-0.0019312 0-45 18 45 17.996z"/>
  <path transform="matrix(1 0 0 -1 915.23 666)" d="m-0.0019312 0 18-45-45 18z"/>
  <path transform="matrix(1 0 0 -1 951.23 756)" d="m-0.0019312 0-18 45 45-18z"/>
  <path transform="matrix(1 0 0 -1 915.23 666)" d="m-0.0019312 0 18 45 18-45z"/>
  <path transform="matrix(1 0 0 -1 951.23 576)" d="m-0.0019312 0-18-45-18 45z"/>
  <path transform="matrix(1 0 0 -1 888.23 639)" d="m-0.0019312 0 45 18-18-45z"/>
  <path transform="matrix(1 0 0 -1 978.23 603)" d="m-0.0019312 0-45-18 18 45z"/>
  <path transform="matrix(1 0 0 -1 888.23 603)" d="m-0.0019312 0 45-18-45-18.004z"/>
  <path transform="matrix(1 0 0 -1 978.23 639)" d="m-0.0019312 0-45 18 45 17.996z"/>
  <path transform="matrix(1 0 0 -1 915.23 576)" d="m-0.0019312 0 18-45-45 18z"/>
  <path transform="matrix(1 0 0 -1 951.23 666)" d="m-0.0019312 0-18 45 45-18z"/>
  <path transform="matrix(1 0 0 -1 825.23 756)" d="m-0.0019312 0 18 45 18-45z"/>
  <path transform="matrix(1 0 0 -1 861.23 666)" d="m-0.0019312 0-18-45-18 45z"/>
  <path transform="matrix(1 0 0 -1 798.23 729)" d="m-0.0019312 0 45 18-18-45z"/>
  <path transform="matrix(1 0 0 -1 888.23 693)" d="m-0.0019312 0-45-18 18 45z"/>
  <path transform="matrix(1 0 0 -1 798.23 693)" d="m-0.0019312 0 45-18-45-18.004z"/>
  <path transform="matrix(1 0 0 -1 888.23 729)" d="m-0.0019312 0-45 18 45 17.996z"/>
  <path transform="matrix(1 0 0 -1 825.23 666)" d="m-0.0019312 0 18-45-45 18z"/>
  <path transform="matrix(1 0 0 -1 861.23 756)" d="m-0.0019312 0-18 45 45-18z"/>
  <path transform="matrix(1 0 0 -1 825.23 666)" d="m-0.0019312 0 18 45 18-45z"/>
  <path transform="matrix(1 0 0 -1 861.23 576)" d="m-0.0019312 0-18-45-18 45z"/>
  <path transform="matrix(1 0 0 -1 798.23 639)" d="m-0.0019312 0 45 18-18-45z"/>
  <path transform="matrix(1 0 0 -1 888.23 603)" d="m-0.0019312 0-45-18 18 45z"/>
  <path transform="matrix(1 0 0 -1 798.23 603)" d="m-0.0019312 0 45-18-45-18.004z"/>
  <path transform="matrix(1 0 0 -1 888.23 639)" d="m-0.0019312 0-45 18 45 17.996z"/>
  <path transform="matrix(1 0 0 -1 825.23 576)" d="m-0.0019312 0 18-45-45 18z"/>
  <path transform="matrix(1 0 0 -1 861.23 666)" d="m-0.0019312 0-18 45 45-18z"/>
  <path transform="matrix(1 0 0 -1 915.23 576)" d="m-0.0019312 0 18 45 18-45z"/>
  <path transform="matrix(1 0 0 -1 951.23 486)" d="m-0.0019312 0-18-45-18 45z"/>
  <path transform="matrix(1 0 0 -1 888.23 549)" d="m-0.0019312 0 45 18-18-45z"/>
  <path transform="matrix(1 0 0 -1 978.23 513)" d="m-0.0019312 0-45-18 18 45z"/>
  <path transform="matrix(1 0 0 -1 888.23 513)" d="m-0.0019312 0 45-18-45-18.004z"/>
  <path transform="matrix(1 0 0 -1 978.23 549)" d="m-0.0019312 0-45 18 45 17.996z"/>
  <path transform="matrix(1 0 0 -1 915.23 486)" d="m-0.0019312 0 18-45-45 18z"/>
  <path transform="matrix(1 0 0 -1 951.23 576)" d="m-0.0019312 0-18 45 45-18z"/>
  <path transform="matrix(1 0 0 -1 915.23 486)" d="m-0.0019312 0 18 45 18-45z"/>
  <path transform="matrix(1 0 0 -1 951.23 396)" d="m-0.0019312 5e-4 -18-45-18 45z"/>
  <path transform="matrix(1 0 0 -1 888.23 459)" d="m-0.0019312 0 45 18-18-45z"/>
  <path transform="matrix(1 0 0 -1 978.23 423)" d="m-0.0019312 0-45-18 18 45z"/>
  <path transform="matrix(1 0 0 -1 888.23 423)" d="m-0.0019312 0 45-18-45-18.004z"/>
  <path transform="matrix(1 0 0 -1 978.23 459)" d="m-0.0019312 0-45 18 45 17.996z"/>
  <path transform="matrix(1 0 0 -1 915.23 396)" d="m-0.0019312 5e-4 18-45-45 18z"/>
  <path transform="matrix(1 0 0 -1 951.23 486)" d="m-0.0019312 0-18 45 45-18z"/>
  <path transform="matrix(1 0 0 -1 825.23 576)" d="m-0.0019312 0 18 45 18-45z"/>
  <path transform="matrix(1 0 0 -1 861.23 486)" d="m-0.0019312 0-18-45-18 45z"/>
  <path transform="matrix(1 0 0 -1 798.23 549)" d="m-0.0019312 0 45 18-18-45z"/>
  <path transform="matrix(1 0 0 -1 888.23 513)" d="m-0.0019312 0-45-18 18 45z"/>
  <path transform="matrix(1 0 0 -1 798.23 513)" d="m-0.0019312 0 45-18-45-18.004z"/>
  <path transform="matrix(1 0 0 -1 888.23 549)" d="m-0.0019312 0-45 18 45 17.996z"/>
  <path transform="matrix(1 0 0 -1 825.23 486)" d="m-0.0019312 0 18-45-45 18z"/>
  <path transform="matrix(1 0 0 -1 861.23 576)" d="m-0.0019312 0-18 45 45-18z"/>
  <path transform="matrix(1 0 0 -1 825.23 486)" d="m-0.0019312 0 18 45 18-45z"/>
  <path transform="matrix(1 0 0 -1 861.23 396)" d="m-0.0019312 5e-4 -18-45-18 45z"/>
  <path transform="matrix(1 0 0 -1 798.23 459)" d="m-0.0019312 0 45 18-18-45z"/>
  <path transform="matrix(1 0 0 -1 888.23 423)" d="m-0.0019312 0-45-18 18 45z"/>
  <path transform="matrix(1 0 0 -1 798.23 423)" d="m-0.0019312 0 45-18-45-18.004z"/>
  <path transform="matrix(1 0 0 -1 888.23 459)" d="m-0.0019312 0-45 18 45 17.996z"/>
  <path transform="matrix(1 0 0 -1 825.23 396)" d="m-0.0019312 5e-4 18-45-45 18z"/>
  <path transform="matrix(1 0 0 -1 861.23 486)" d="m-0.0019312 0-18 45 45-18z"/>
  <path transform="matrix(1 0 0 -1 735.23 396)" d="m-0.0019312 5e-4 18 45 18-45z"/>
  <path transform="matrix(1 0 0 -1 771.23 306)" d="m-0.0019312 5e-4 -18-45-18 45z"/>
  <path transform="matrix(1 0 0 -1 708.23 369)" d="m-0.0019312-5e-4 45 18-18-45z"/>
  <path transform="matrix(1 0 0 -1 798.23 333)" d="m-0.0019312-5e-4 -45-18 18 45z"/>
  <path transform="matrix(1 0 0 -1 708.23 333)" d="m-0.0019312 5e-4 45-18-45-18z"/>
  <path transform="matrix(1 0 0 -1 798.23 369)" d="m-0.0019312 5e-4 -45 18 45 18z"/>
  <path transform="matrix(1 0 0 -1 735.23 306)" d="m-0.0019312-5e-4 18-45-45 18z"/>
  <path transform="matrix(1 0 0 -1 771.23 396)" d="m-0.0019312 5e-4 -18 45 45-18z"/>
  <path transform="matrix(1 0 0 -1 735.23 306)" d="m-0.0019312 5e-4 18 45 18-45z"/>
  <path transform="matrix(1 0 0 -1 771.23 216)" d="m-0.0019312 5e-4 -18-45-18 45z"/>
  <path transform="matrix(1 0 0 -1 708.23 279)" d="m-0.0019312-5e-4 45 18-18-45z"/>
  <path transform="matrix(1 0 0 -1 798.23 243)" d="m-0.0019312-5e-4 -45-18 18 45z"/>
  <path transform="matrix(1 0 0 -1 708.23 243)" d="m-0.0019312 5e-4 45-18-45-18z"/>
  <path transform="matrix(1 0 0 -1 798.23 279)" d="m-0.0019312 5e-4 -45 18 45 18z"/>
  <path transform="matrix(1 0 0 -1 735.23 216)" d="m-0.0019312-5e-4 18-45-45 18z"/>
  <path transform="matrix(1 0 0 -1 771.23 306)" d="m-0.0019312-5e-4 -18 45 45-18z"/>
  <path transform="matrix(1 0 0 -1 645.23 396)" d="m-0.0019312 5e-4 18 45 18-45z"/>
  <path transform="matrix(1 0 0 -1 681.23 306)" d="m-0.0019312 5e-4 -18-45-18 45z"/>
  <path transform="matrix(1 0 0 -1 618.23 369)" d="m-0.0019312-5e-4 45 18-18-45z"/>
  <path transform="matrix(1 0 0 -1 708.23 333)" d="m-0.0019312-5e-4 -45-18 18 45z"/>
  <path transform="matrix(1 0 0 -1 618.23 333)" d="m-0.0019312 5e-4 45-18-45-18z"/>
  <path transform="matrix(1 0 0 -1 708.23 369)" d="m-0.0019312 5e-4 -45 18 45 18z"/>
  <path transform="matrix(1 0 0 -1 645.23 306)" d="m-0.0019312-5e-4 18-45-45 18z"/>
  <path transform="matrix(1 0 0 -1 681.23 396)" d="m-0.0019312 5e-4 -18 45 45-18z"/>
  <path transform="matrix(1 0 0 -1 645.23 306)" d="m-0.0019312 5e-4 18 45 18-45z"/>
  <path transform="matrix(1 0 0 -1 681.23 216)" d="m-0.0019312 5e-4 -18-45-18 45z"/>
  <path transform="matrix(1 0 0 -1 618.23 279)" d="m-0.0019312-5e-4 45 18-18-45z"/>
  <path transform="matrix(1 0 0 -1 708.23 243)" d="m-0.0019312-5e-4 -45-18 18 45z"/>
  <path transform="matrix(1 0 0 -1 618.23 243)" d="m-0.0019312 5e-4 45-18-45-18z"/>
  <path transform="matrix(1 0 0 -1 708.23 279)" d="m-0.0019312 5e-4 -45 18 45 18z"/>
  <path transform="matrix(1 0 0 -1 645.23 216)" d="m-0.0019312-5e-4 18-45-45 18z"/>
  <path transform="matrix(1 0 0 -1 681.23 306)" d="m-0.0019312-5e-4 -18 45 45-18z"/>
  <path transform="matrix(1 0 0 -1 735.23 216)" d="m-0.0019312 5e-4 18 45 18-45z"/>
  <path transform="matrix(1 0 0 -1 771.23 126)" d="m-0.0019312 5e-4 -18-45-18 45z"/>
  <path transform="matrix(1 0 0 -1 708.23 189)" d="m-0.0019312-5e-4 45 18-18-45z"/>
  <path transform="matrix(1 0 0 -1 798.23 153)" d="m-0.0019312-5e-4 -45-18 18 45z"/>
  <path transform="matrix(1 0 0 -1 708.23 153)" d="m-0.0019312 5e-4 45-18-45-18z"/>
  <path transform="matrix(1 0 0 -1 798.23 189)" d="m-0.0019312 5e-4 -45 18 45 18z"/>
  <path transform="matrix(1 0 0 -1 735.23 126)" d="m-0.0019312-5e-4 18-45-45 18z"/>
  <path transform="matrix(1 0 0 -1 771.23 216)" d="m-0.0019312-5e-4 -18 45 45-18z"/>
  <path transform="matrix(1 0 0 -1 735.23 126)" d="m-0.0019312 5e-4 18 45 18-45z"/>
  <path transform="matrix(1 0 0 -1 771.23 36)" d="m-0.0019312 5e-4 -18-45-18 45z"/>
  <path transform="matrix(1 0 0 -1 708.23 99)" d="m-0.0019312-5e-4 45 18-18-45z"/>
  <path transform="matrix(1 0 0 -1 798.23 63)" d="m-0.0019312-5e-4 -45-18 18 45z"/>
  <path transform="matrix(1 0 0 -1 708.23 63)" d="m-0.0019312 5e-4 45-18-45-18z"/>
  <path transform="matrix(1 0 0 -1 798.23 99)" d="m-0.0019312 5e-4 -45 18 45 18z"/>
  <path transform="matrix(1 0 0 -1 735.23 36)" d="m-0.0019312-5e-4 18-45-45 18z"/>
  <path transform="matrix(1 0 0 -1 771.23 126)" d="m-0.0019312-5e-4 -18 45 45-18z"/>
  <path transform="matrix(1 0 0 -1 645.23 216)" d="m-0.0019312 5e-4 18 45 18-45z"/>
  <path transform="matrix(1 0 0 -1 681.23 126)" d="m-0.0019312 5e-4 -18-45-18 45z"/>
  <path transform="matrix(1 0 0 -1 618.23 189)" d="m-0.0019312-5e-4 45 18-18-45z"/>
  <path transform="matrix(1 0 0 -1 708.23 153)" d="m-0.0019312-5e-4 -45-18 18 45z"/>
  <path transform="matrix(1 0 0 -1 618.23 153)" d="m-0.0019312 5e-4 45-18-45-18z"/>
  <path transform="matrix(1 0 0 -1 708.23 189)" d="m-0.0019312 5e-4 -45 18 45 18z"/>
  <path transform="matrix(1 0 0 -1 645.23 126)" d="m-0.0019312-5e-4 18-45-45 18z"/>
  <path transform="matrix(1 0 0 -1 681.23 216)" d="m-0.0019312-5e-4 -18 45 45-18z"/>
  <path transform="matrix(1 0 0 -1 645.23 126)" d="m-0.0019312 5e-4 18 45 18-45z"/>
  <path transform="matrix(1 0 0 -1 681.23 36)" d="m-0.0019312 5e-4 -18-45-18 45z"/>
  <path transform="matrix(1 0 0 -1 618.23 99)" d="m-0.0019312-5e-4 45 18-18-45z"/>
  <path transform="matrix(1 0 0 -1 708.23 63)" d="m-0.0019312-5e-4 -45-18 18 45z"/>
  <path transform="matrix(1 0 0 -1 618.23 63)" d="m-0.0019312 5e-4 45-18-45-18z"/>
  <path transform="matrix(1 0 0 -1 708.23 99)" d="m-0.0019312 5e-4 -45 18 45 18z"/>
  <path transform="matrix(1 0 0 -1 645.23 36)" d="m-0.0019312-5e-4 18-45-45 18z"/>
  <path transform="matrix(1 0 0 -1 681.23 126)" d="m-0.0019312-5e-4 -18 45 45-18z"/>
  <path transform="matrix(1 0 0 -1 915.23 396)" d="m-0.0019312 5e-4 18 45 18-45z"/>
  <path transform="matrix(1 0 0 -1 951.23 306)" d="m-0.0019312 5e-4 -18-45-18 45z"/>
  <path transform="matrix(1 0 0 -1 888.23 369)" d="m-0.0019312-5e-4 45 18-18-45z"/>
  <path transform="matrix(1 0 0 -1 978.23 333)" d="m-0.0019312-5e-4 -45-18 18 45z"/>
  <path transform="matrix(1 0 0 -1 888.23 333)" d="m-0.0019312 5e-4 45-18-45-18z"/>
  <path transform="matrix(1 0 0 -1 978.23 369)" d="m-0.0019312 5e-4 -45 18 45 18z"/>
  <path transform="matrix(1 0 0 -1 915.23 306)" d="m-0.0019312-5e-4 18-45-45 18z"/>
  <path transform="matrix(1 0 0 -1 951.23 396)" d="m-0.0019312 5e-4 -18 45 45-18z"/>
  <path transform="matrix(1 0 0 -1 915.23 306)" d="m-0.0019312 5e-4 18 45 18-45z"/>
  <path transform="matrix(1 0 0 -1 951.23 216)" d="m-0.0019312 5e-4 -18-45-18 45z"/>
  <path transform="matrix(1 0 0 -1 888.23 279)" d="m-0.0019312-5e-4 45 18-18-45z"/>
  <path transform="matrix(1 0 0 -1 978.23 243)" d="m-0.0019312-5e-4 -45-18 18 45z"/>
  <path transform="matrix(1 0 0 -1 888.23 243)" d="m-0.0019312 5e-4 45-18-45-18z"/>
  <path transform="matrix(1 0 0 -1 978.23 279)" d="m-0.0019312 5e-4 -45 18 45 18z"/>
  <path transform="matrix(1 0 0 -1 915.23 216)" d="m-0.0019312-5e-4 18-45-45 18z"/>
  <path transform="matrix(1 0 0 -1 951.23 306)" d="m-0.0019312-5e-4 -18 45 45-18z"/>
  <path transform="matrix(1 0 0 -1 825.23 396)" d="m-0.0019312 5e-4 18 45 18-45z"/>
  <path transform="matrix(1 0 0 -1 861.23 306)" d="m-0.0019312 5e-4 -18-45-18 45z"/>
  <path transform="matrix(1 0 0 -1 798.23 369)" d="m-0.0019312-5e-4 45 18-18-45z"/>
  <path transform="matrix(1 0 0 -1 888.23 333)" d="m-0.0019312-5e-4 -45-18 18 45z"/>
  <path transform="matrix(1 0 0 -1 798.23 333)" d="m-0.0019312 5e-4 45-18-45-18z"/>
  <path transform="matrix(1 0 0 -1 888.23 369)" d="m-0.0019312 5e-4 -45 18 45 18z"/>
  <path transform="matrix(1 0 0 -1 825.23 306)" d="m-0.0019312-5e-4 18-45-45 18z"/>
  <path transform="matrix(1 0 0 -1 861.23 396)" d="m-0.0019312 5e-4 -18 45 45-18z"/>
  <path transform="matrix(1 0 0 -1 825.23 306)" d="m-0.0019312 5e-4 18 45 18-45z"/>
  <path transform="matrix(1 0 0 -1 861.23 216)" d="m-0.0019312 5e-4 -18-45-18 45z"/>
  <path transform="matrix(1 0 0 -1 798.23 279)" d="m-0.0019312-5e-4 45 18-18-45z"/>
  <path transform="matrix(1 0 0 -1 888.23 243)" d="m-0.0019312-5e-4 -45-18 18 45z"/>
  <path transform="matrix(1 0 0 -1 798.23 243)" d="m-0.0019312 5e-4 45-18-45-18z"/>
  <path transform="matrix(1 0 0 -1 888.23 279)" d="m-0.0019312 5e-4 -45 18 45 18z"/>
  <path transform="matrix(1 0 0 -1 825.23 216)" d="m-0.0019312-5e-4 18-45-45 18z"/>
  <path transform="matrix(1 0 0 -1 861.23 306)" d="m-0.0019312-5e-4 -18 45 45-18z"/>
  <path transform="matrix(1 0 0 -1 915.23 216)" d="m-0.0019312 5e-4 18 45 18-45z"/>
  <path transform="matrix(1 0 0 -1 951.23 126)" d="m-0.0019312 5e-4 -18-45-18 45z"/>
  <path transform="matrix(1 0 0 -1 888.23 189)" d="m-0.0019312-5e-4 45 18-18-45z"/>
  <path transform="matrix(1 0 0 -1 978.23 153)" d="m-0.0019312-5e-4 -45-18 18 45z"/>
  <path transform="matrix(1 0 0 -1 888.23 153)" d="m-0.0019312 5e-4 45-18-45-18z"/>
  <path transform="matrix(1 0 0 -1 978.23 189)" d="m-0.0019312 5e-4 -45 18 45 18z"/>
  <path transform="matrix(1 0 0 -1 915.23 126)" d="m-0.0019312-5e-4 18-45-45 18z"/>
  <path transform="matrix(1 0 0 -1 951.23 216)" d="m-0.0019312-5e-4 -18 45 45-18z"/>
  <path transform="matrix(1 0 0 -1 915.23 126)" d="m-0.0019312 5e-4 18 45 18-45z"/>
  <path transform="matrix(1 0 0 -1 951.23 36)" d="m-0.0019312 5e-4 -18-45-18 45z"/>
  <path transform="matrix(1 0 0 -1 888.23 99)" d="m-0.0019312-5e-4 45 18-18-45z"/>
  <path transform="matrix(1 0 0 -1 978.23 63)" d="m-0.0019312-5e-4 -45-18 18 45z"/>
  <path transform="matrix(1 0 0 -1 888.23 63)" d="m-0.0019312 5e-4 45-18-45-18z"/>
  <path transform="matrix(1 0 0 -1 978.23 99)" d="m-0.0019312 5e-4 -45 18 45 18z"/>
  <path transform="matrix(1 0 0 -1 915.23 36)" d="m-0.0019312-5e-4 18-45-45 18z"/>
  <path transform="matrix(1 0 0 -1 951.23 126)" d="m-0.0019312-5e-4 -18 45 45-18z"/>
  <path transform="matrix(1 0 0 -1 825.23 216)" d="m-0.0019312 5e-4 18 45 18-45z"/>
  <path transform="matrix(1 0 0 -1 861.23 126)" d="m-0.0019312 5e-4 -18-45-18 45z"/>
  <path transform="matrix(1 0 0 -1 798.23 189)" d="m-0.0019312-5e-4 45 18-18-45z"/>
  <path transform="matrix(1 0 0 -1 888.23 153)" d="m-0.0019312-5e-4 -45-18 18 45z"/>
  <path transform="matrix(1 0 0 -1 798.23 153)" d="m-0.0019312 5e-4 45-18-45-18z"/>
  <path transform="matrix(1 0 0 -1 888.23 189)" d="m-0.0019312 5e-4 -45 18 45 18z"/>
  <path transform="matrix(1 0 0 -1 825.23 126)" d="m-0.0019312-5e-4 18-45-45 18z"/>
  <path transform="matrix(1 0 0 -1 861.23 216)" d="m-0.0019312-5e-4 -18 45 45-18z"/>
  <path transform="matrix(1 0 0 -1 825.23 126)" d="m-0.0019312 5e-4 18 45 18-45z"/>
  <path transform="matrix(1 0 0 -1 861.23 36)" d="m-0.0019312 5e-4 -18-45-18 45z"/>
  <path transform="matrix(1 0 0 -1 798.23 99)" d="m-0.0019312-5e-4 45 18-18-45z"/>
  <path transform="matrix(1 0 0 -1 888.23 63)" d="m-0.0019312-5e-4 -45-18 18 45z"/>
  <path transform="matrix(1 0 0 -1 798.23 63)" d="m-0.0019312 5e-4 45-18-45-18z"/>
  <path transform="matrix(1 0 0 -1 888.23 99)" d="m-0.0019312 5e-4 -45 18 45 18z"/>
  <path transform="matrix(1 0 0 -1 825.23 36)" d="m-0.0019312-5e-4 18-45-45 18z"/>
  <path transform="matrix(1 0 0 -1 861.23 126)" d="m-0.0019312-5e-4 -18 45 45-18z"/>
 </g>
</svg>
