<?xml version="1.0" encoding="UTF-8"?>
<svg width="684pt" height="576pt" version="1.2" viewBox="0 0 684 576" xmlns="http://www.w3.org/2000/svg" xmlns:cc="http://creativecommons.org/ns#" xmlns:dc="http://purl.org/dc/elements/1.1/" xmlns:rdf="http://www.w3.org/1999/02/22-rdf-syntax-ns#" xmlns:xlink="http://www.w3.org/1999/xlink">
 <metadata>
  <rdf:RDF>
   <cc:Work rdf:about="">
    <dc:format>image/svg+xml</dc:format>
    <dc:type rdf:resource="http://purl.org/dc/dcmitype/StillImage"/>
    <dc:title/>
   </cc:Work>
  </rdf:RDF>
 </metadata>
 <defs>
  <filter id="alpha" x="0%" y="0%" width="100%" height="100%">
   <feColorMatrix in="SourceGraphic" values="0 0 0 0 1 0 0 0 0 1 0 0 0 0 1 0 0 0 1 0"/>
  </filter>
  <mask id="mask0">
   <g filter="url(#alpha)">
    <rect width="684" height="576" fill-opacity=".5"/>
   </g>
  </mask>
  <clipPath id="clip1">
   <rect width="684" height="576"/>
  </clipPath>
  <g id="surface17744" clip-path="url(#clip1)">
   <path transform="matrix(1 0 0 -1 575.05 -56.513)" d="m3.8125e-4 -0.0013812-17.234-43.082-17.23 43.082zm-34.465-86.168 17.23 43.086 17.234-43.086zm60.312 60.32-43.082-17.234 17.234 43.082zm-86.164-34.469 43.082 17.234-17.23-43.086zm86.164 0-43.082 17.234 43.082 17.234zm-86.164 34.469 43.082-17.234-43.082-17.234zm60.316-60.32-17.234 43.086 43.082-17.234zm-34.465 86.168 17.23-43.082-43.082 17.234zm34.465-86.168-17.234-43.082-17.23 43.082zm-34.465-86.168 17.23 43.086 17.234-43.086zm60.312 60.32-43.082-17.234 17.234 43.082zm-86.164-34.469 43.082 17.234-17.23-43.086zm86.164 0-43.082 17.234 43.082 17.234zm-86.164 34.469 43.082-17.234-43.082-17.234zm60.316-60.32-17.234 43.086 43.082-17.234zm-34.465 86.168 17.23-43.082-43.082 17.234zm60.312-25.848-25.848 25.848 25.848 25.852zm-86.164 51.699 25.852-25.852-25.852-25.848zm146.48 60.316-17.234-43.082-17.23 43.082zm-34.465-86.168 17.23 43.086 17.234-43.086zm60.312 60.32-43.082-17.234 17.234 43.082zm-86.164-34.469 43.082 17.234-17.23-43.086zm86.164 0-43.082 17.234 43.082 17.234zm-86.164 34.469 43.082-17.234-43.082-17.234zm60.316-60.32-17.234 43.086 43.082-17.234zm-34.465 86.168 17.23-43.082-43.082 17.234zm34.465-86.168-17.234-43.082-17.23 43.082zm-34.465-86.168 17.23 43.086 17.234-43.086zm60.312 60.32-43.082-17.234 17.234 43.082zm-86.164-34.469 43.082 17.234-17.23-43.086zm86.164 0-43.082 17.234 43.082 17.234zm-86.164 34.469 43.082-17.234-43.082-17.234zm60.316-60.32-17.234 43.086 43.082-17.234zm-34.465 86.168 17.23-43.082-43.082 17.234zm60.312-25.848-25.848 25.848 25.848 25.852zm-172.33-34.469 25.852-25.852-25.852-25.852zm172.33-51.703-25.848 25.852 25.848 25.852zm-86.164 137.87 25.852-25.852-25.852-25.848zm0-137.87-25.848 25.852 25.848 25.852zm0 51.703 25.852-25.852-25.852-25.852zm-25.848-25.852-17.234-43.082-17.23 43.082zm-34.465-86.168 17.23 43.086 17.234-43.086zm60.312 60.316-43.082-17.23 17.234 43.082zm-86.164-34.465 43.082 17.234-17.23-43.086zm86.164 0-43.082 17.234 43.082 17.234zm-86.164 34.465 43.082-17.23-43.082-17.234zm60.316-60.316-17.234 43.086 43.082-17.234zm-34.465 86.168 17.23-43.082-43.082 17.23zm34.465-86.168-17.234-43.082-17.23 43.082zm-34.465-86.164 17.23 43.082 17.234-43.082zm60.312 60.312-43.082-17.23 17.234 43.082zm-86.164-34.465 43.082 17.234-17.23-43.082zm86.164 0-43.082 17.234 43.082 17.234zm-86.164 34.465 43.082-17.23-43.082-17.234zm60.316-60.312-17.234 43.082 43.082-17.234zm-34.465 86.164 17.23-43.082-43.082 17.23zm60.312-25.852-25.848 25.852 25.848 25.852zm-86.164 51.703 25.852-25.852-25.852-25.852zm146.48 60.316-17.234-43.082-17.23 43.082zm-34.465-86.168 17.23 43.086 17.234-43.086zm60.312 60.316-43.082-17.23 17.234 43.082zm-86.164-34.465 43.082 17.234-17.23-43.086zm86.164 0-43.082 17.234 43.082 17.234zm-86.164 34.465 43.082-17.23-43.082-17.234zm60.316-60.316-17.234 43.086 43.082-17.234zm-34.465 86.168 17.23-43.082-43.082 17.23zm34.465-86.168-17.234-43.082-17.23 43.082zm-34.465-86.164 17.23 43.082 17.234-43.082zm60.312 60.312-43.082-17.23 17.234 43.082zm-86.164-34.465 43.082 17.234-17.23-43.082zm86.164 0-43.082 17.234 43.082 17.234zm-86.164 34.465 43.082-17.23-43.082-17.234zm60.316-60.312-17.234 43.082 43.082-17.234zm-34.465 86.164 17.23-43.082-43.082 17.23zm60.312-25.852-25.848 25.852 25.848 25.852zm-172.33-34.465 25.852-25.848-25.852-25.855zm172.33-51.703-25.848 25.855 25.848 25.848zm-86.164 137.87 25.852-25.852-25.852-25.852zm0-137.87-25.848 25.855 25.848 25.848zm0 51.703 25.852-25.848-25.852-25.855zm-198.18 318.82-17.23-43.082-17.234 43.082zm-34.465-86.168 17.234 43.086 17.23-43.086zm60.312 60.32-43.078-17.234 17.23 43.082zm-86.164-34.469 43.086 17.234-17.234-43.086zm86.164 0-43.078 17.234 43.078 17.234zm-86.164 34.469 43.086-17.234-43.086-17.234zm60.316-60.32-17.23 43.086 43.078-17.234zm-34.465 86.168 17.234-43.082-43.086 17.234zm34.465-86.168-17.23-43.082-17.234 43.082zm-34.465-86.168 17.234 43.086 17.23-43.086zm60.312 60.32-43.078-17.234 17.23 43.082zm-86.164-34.469 43.086 17.234-17.234-43.086zm86.164 0-43.078 17.234 43.078 17.234zm-86.164 34.469 43.086-17.234-43.086-17.234zm60.316-60.32-17.23 43.086 43.078-17.234zm-34.465 86.168 17.234-43.082-43.086 17.234zm60.312-25.848-25.848 25.848 25.848 25.852zm-86.164 51.699 25.852-25.852-25.852-25.848zm146.48 60.316-17.234-43.082-17.23 43.082zm-34.465-86.168 17.23 43.086 17.234-43.086zm60.312 60.32-43.082-17.234 17.234 43.082zm-86.164-34.469 43.082 17.234-17.23-43.086zm86.164 0-43.082 17.234 43.082 17.234zm-86.164 34.469 43.082-17.234-43.082-17.234zm60.316-60.32-17.234 43.086 43.082-17.234zm-34.465 86.168 17.23-43.082-43.082 17.234zm34.465-86.168-17.234-43.082-17.23 43.082zm-34.465-86.168 17.23 43.086 17.234-43.086zm60.312 60.32-43.082-17.234 17.234 43.082zm-86.164-34.469 43.082 17.234-17.23-43.086zm86.164 0-43.082 17.234 43.082 17.234zm-86.164 34.469 43.082-17.234-43.082-17.234zm60.316-60.32-17.234 43.086 43.082-17.234zm-34.465 86.168 17.23-43.082-43.082 17.234zm60.312-25.848-25.848 25.848 25.848 25.852zm-172.33-34.469 25.852-25.852-25.852-25.852zm172.33-51.703-25.848 25.852 25.848 25.852zm-86.164 137.87 25.852-25.852-25.852-25.848zm0-137.87-25.848 25.852 25.848 25.852zm0 51.703 25.852-25.852-25.852-25.852zm-25.848-25.852-17.23-43.082-17.234 43.082zm-34.465-86.168 17.234 43.086 17.23-43.086zm60.312 60.316-43.078-17.23 17.23 43.082zm-86.164-34.465 43.086 17.234-17.234-43.086zm86.164 0-43.078 17.234 43.078 17.234zm-86.164 34.465 43.086-17.23-43.086-17.234zm60.316-60.316-17.23 43.086 43.078-17.234zm-34.465 86.168 17.234-43.082-43.086 17.23zm34.465-86.168-17.23-43.082-17.234 43.082zm-34.465-86.164 17.234 43.082 17.23-43.082zm60.312 60.312-43.078-17.23 17.23 43.082zm-86.164-34.465 43.086 17.234-17.234-43.082zm86.164 0-43.078 17.234 43.078 17.234zm-86.164 34.465 43.086-17.23-43.086-17.234zm60.316-60.312-17.23 43.082 43.078-17.234zm-34.465 86.164 17.234-43.082-43.086 17.23zm60.312-25.852-25.848 25.852 25.848 25.852zm-86.164 51.703 25.852-25.852-25.852-25.852zm146.48 60.316-17.234-43.082-17.23 43.082zm-34.465-86.168 17.23 43.086 17.234-43.086zm60.312 60.316-43.082-17.23 17.234 43.082zm-86.164-34.465 43.082 17.234-17.23-43.086zm86.164 0-43.082 17.234 43.082 17.234zm-86.164 34.465 43.082-17.23-43.082-17.234zm60.316-60.316-17.234 43.086 43.082-17.234zm-34.465 86.168 17.23-43.082-43.082 17.23zm34.465-86.168-17.234-43.082-17.23 43.082zm-34.465-86.164 17.23 43.082 17.234-43.082zm60.312 60.312-43.082-17.23 17.234 43.082zm-86.164-34.465 43.082 17.234-17.23-43.082zm86.164 0-43.082 17.234 43.082 17.234zm-86.164 34.465 43.082-17.23-43.082-17.234zm60.316-60.312-17.234 43.082 43.082-17.234zm-34.465 86.164 17.23-43.082-43.082 17.23zm60.312-25.852-25.848 25.852 25.848 25.852zm-172.33-34.465 25.852-25.848-25.852-25.855zm172.33-51.703-25.848 25.855 25.848 25.848zm-86.164 137.87 25.852-25.852-25.852-25.852zm0-137.87-25.848 25.855 25.848 25.848zm0 51.703 25.852-25.848-25.852-25.855zm146.48-25.848-17.234-43.086-17.23 43.086zm-34.465-86.168 17.23 43.082 17.234-43.082zm60.312 60.312-43.082-17.23 17.234 43.086zm-86.164-34.465 43.082 17.234-17.23-43.086zm86.164 0-43.082 17.234 43.082 17.234zm-86.164 34.469 43.082-17.234-43.082-17.234zm60.316-60.32-17.234 43.086 43.082-17.234zm-34.465 86.172 17.23-43.086-43.082 17.23zm34.465-86.168-17.234-43.086-17.23 43.086zm-34.465-86.168 17.23 43.082 17.234-43.082zm60.312 60.312-43.082-17.23 17.234 43.082zm-86.164-34.465 43.082 17.234-17.23-43.086zm86.164 0-43.082 17.234 43.082 17.234zm-86.164 34.469 43.082-17.234-43.082-17.234zm60.316-60.32-17.234 43.086 43.082-17.234zm-34.465 86.168 17.23-43.082-43.082 17.23zm60.312-25.852-25.848 25.852 25.848 25.852zm-86.164 51.703 25.852-25.852-25.852-25.852zm146.48 60.32-17.234-43.086-17.23 43.086zm-34.465-86.168 17.23 43.082 17.234-43.082zm60.312 60.312-43.082-17.23 17.234 43.086zm-86.164-34.465 43.082 17.234-17.23-43.086zm86.164 0-43.082 17.234 43.082 17.234zm-86.164 34.469 43.082-17.234-43.082-17.234zm60.316-60.32-17.234 43.086 43.082-17.234zm-34.465 86.172 17.23-43.086-43.082 17.23zm34.465-86.168-17.234-43.086-17.23 43.086zm-34.465-86.168 17.23 43.082 17.234-43.082zm60.312 60.312-43.082-17.23 17.234 43.082zm-86.164-34.465 43.082 17.234-17.23-43.086zm86.164 0-43.082 17.234 43.082 17.234zm-86.164 34.469 43.082-17.234-43.082-17.234zm60.316-60.32-17.234 43.086 43.082-17.234zm-34.465 86.168 17.23-43.082-43.082 17.23zm60.312-25.852-25.848 25.852 25.848 25.852zm-172.33-34.465 25.852-25.852-25.852-25.852zm172.33-51.703-25.848 25.852 25.848 25.852zm-86.164 137.87 25.852-25.852-25.852-25.852zm0-137.87-25.848 25.852 25.848 25.852zm0 51.703 25.852-25.852-25.852-25.852z" fill="none" stroke="#fff" stroke-miterlimit="10" stroke-width=".516"/>
   <path transform="matrix(1 0 0 -1 575.04 460.52)" d="m-0.0019438-1.3125e-4 -17.234-43.086-17.234 43.086zm-34.469-86.172 17.234 43.086 17.234-43.086zm60.324 60.32-43.09-17.234 17.234 43.086zm-86.176-34.469 43.086 17.234-17.234-43.086zm86.176 0-43.09 17.234 43.09 17.234zm-86.176 34.469 43.086-17.234-43.086-17.234zm60.32-60.32-17.234 43.086 43.09-17.234zm-34.469 86.172 17.234-43.086-43.086 17.234zm34.469-86.172-17.234-43.086-17.234 43.086zm-34.469-86.172 17.234 43.086 17.234-43.086zm60.324 60.32-43.09-17.234 17.234 43.086zm-86.176-34.469 43.086 17.234-17.234-43.086zm86.176 0-43.09 17.234 43.09 17.234zm-86.176 34.469 43.086-17.234-43.086-17.234zm60.32-60.32-17.234 43.086 43.09-17.234zm-34.469 86.172 17.234-43.086-43.086 17.234zm60.324-25.852-25.855 25.852 25.855 25.852zm-86.176 51.703 25.852-25.852-25.852-25.852zm146.5 60.32-17.234-43.086-17.234 43.086zm-34.469-86.172 17.234 43.086 17.234-43.086zm60.32 60.32-43.086-17.234 17.234 43.086zm-86.172-34.469 43.086 17.234-17.234-43.086zm86.172 0-43.086 17.234 43.086 17.234zm-86.172 34.469 43.086-17.234-43.086-17.234zm60.32-60.32-17.234 43.086 43.086-17.234zm-34.469 86.172 17.234-43.086-43.086 17.234zm34.469-86.172-17.234-43.086-17.234 43.086zm-34.469-86.172 17.234 43.086 17.234-43.086zm60.32 60.32-43.086-17.234 17.234 43.086zm-86.172-34.469 43.086 17.234-17.234-43.086zm86.172 0-43.086 17.234 43.086 17.234zm-86.172 34.469 43.086-17.234-43.086-17.234zm60.32-60.32-17.234 43.086 43.086-17.234zm-34.469 86.172 17.234-43.086-43.086 17.234zm60.32-25.852-25.852 25.852 25.852 25.852zm-689.5 517.03 25.852 25.852-25.852 25.852zm0-86.172 25.852 25.852-25.852 25.852zm0-86.172 25.852 25.852-25.852 25.852zm0-86.172 25.852 25.852-25.852 25.852zm0-86.172 25.852 25.852-25.852 25.852zm0-86.172 25.852 25.852-25.852 25.852zm0-86.172 25.852 25.852-25.852 25.852zm603.32 51.703 25.852-25.852-25.852-25.852zm-198.2 232.66-17.234-43.086-17.234 43.086zm-34.469-86.172 17.234 43.086 17.234-43.086zm60.324 60.32-43.09-17.234 17.234 43.086zm-86.176-34.469 43.086 17.234-17.234-43.086zm86.176 0-43.09 17.234 43.09 17.234zm-86.176 34.469 43.086-17.234-43.086-17.234zm60.32-60.32-17.234 43.086 43.09-17.234zm-34.469 86.172 17.234-43.086-43.086 17.234zm34.469-86.172-17.234-43.086-17.234 43.086zm-34.469-86.172 17.234 43.086 17.234-43.086zm60.324 60.32-43.09-17.234 17.234 43.086zm-86.176-34.469 43.086 17.234-17.234-43.086zm86.176 0-43.09 17.234 43.09 17.234zm-86.176 34.469 43.086-17.234-43.086-17.234zm60.32-60.32-17.234 43.086 43.09-17.234zm-34.469 86.172 17.234-43.086-43.086 17.234zm60.324-25.852-25.855 25.852 25.855 25.852zm-86.176 51.703 25.852-25.852-25.852-25.852zm146.5 60.32-17.234-43.086-17.234 43.086zm-34.469-86.172 17.234 43.086 17.234-43.086zm60.32 60.32-43.086-17.234 17.234 43.086zm-86.172-34.469 43.086 17.234-17.234-43.086zm86.172 0-43.086 17.234 43.086 17.234zm-86.172 34.469 43.086-17.234-43.086-17.234zm60.32-60.32-17.234 43.086 43.086-17.234zm-34.469 86.172 17.234-43.086-43.086 17.234zm34.469-86.172-17.234-43.086-17.234 43.086zm-34.469-86.172 17.234 43.086 17.234-43.086zm60.32 60.32-43.086-17.234 17.234 43.086zm-86.172-34.469 43.086 17.234-17.234-43.086zm86.172 0-43.086 17.234 43.086 17.234zm-86.172 34.469 43.086-17.234-43.086-17.234zm60.32-60.32-17.234 43.086 43.086-17.234zm-34.469 86.172 17.234-43.086-43.086 17.234zm60.32-25.852-25.852 25.852 25.852 25.852zm-172.35-34.469 25.852-25.852-25.852-25.852zm172.35-51.703-25.852 25.852 25.852 25.852zm-86.172 137.88 25.852-25.852-25.852-25.852zm0-137.88-25.855 25.852 25.855 25.852zm0 51.703 25.852-25.852-25.852-25.852zm-25.855-25.852-17.234-43.086-17.234 43.086zm-34.469-86.172 17.234 43.086 17.234-43.086zm60.324 60.32-43.09-17.234 17.234 43.086zm-86.176-34.469 43.086 17.234-17.234-43.086zm86.176 0-43.09 17.234 43.09 17.234zm-86.176 34.469 43.086-17.234-43.086-17.234zm60.32-60.32-17.234 43.086 43.09-17.234zm-34.469 86.172 17.234-43.086-43.086 17.234zm34.469-86.172-17.234-43.086-17.234 43.086zm-34.469-86.172 17.234 43.086 17.234-43.086zm60.324 60.32-43.09-17.234 17.234 43.086zm-86.176-34.469 43.086 17.234-17.234-43.086zm86.176 0-43.09 17.234 43.09 17.234zm-86.176 34.469 43.086-17.234-43.086-17.234zm60.32-60.32-17.234 43.086 43.09-17.234zm-34.469 86.172 17.234-43.086-43.086 17.234zm60.324-25.852-25.855 25.852 25.855 25.852zm-86.176 51.703 25.852-25.852-25.852-25.852zm146.5 60.32-17.234-43.086-17.234 43.086zm-34.469-86.172 17.234 43.086 17.234-43.086zm60.32 60.32-43.086-17.234 17.234 43.086zm-86.172-34.469 43.086 17.234-17.234-43.086zm86.172 0-43.086 17.234 43.086 17.234zm-86.172 34.469 43.086-17.234-43.086-17.234zm60.32-60.32-17.234 43.086 43.086-17.234zm-34.469 86.172 17.234-43.086-43.086 17.234zm34.469-86.172-17.234-43.086-17.234 43.086zm-34.469-86.172 17.234 43.086 17.234-43.086zm60.32 60.32-43.086-17.234 17.234 43.086zm-86.172-34.469 43.086 17.234-17.234-43.086zm86.172 0-43.086 17.234 43.086 17.234zm-86.172 34.469 43.086-17.234-43.086-17.234zm60.32-60.32-17.234 43.086 43.086-17.234zm-34.469 86.172 17.234-43.086-43.086 17.234zm60.32-25.852-25.852 25.852 25.852 25.852zm-86.172 51.703 25.852-25.852-25.852-25.852zm-198.2 577.35-17.234-43.086-17.234 43.086zm-34.469-86.172 17.234 43.086 17.234-43.086zm60.32 60.32-43.086-17.234 17.234 43.086zm-86.172-34.469 43.086 17.234-17.234-43.086zm86.172 0-43.086 17.234 43.086 17.238zm-86.172 34.469 43.086-17.234-43.086-17.23zm60.32-60.32-17.234 43.086 43.086-17.234zm-34.469 86.172 17.234-43.086-43.086 17.234zm34.469-86.172-17.234-43.086-17.234 43.086zm-34.469-86.172 17.234 43.086 17.234-43.086zm60.32 60.32-43.086-17.234 17.234 43.086zm-86.172-34.469 43.086 17.234-17.234-43.086zm86.172 0-43.086 17.234 43.086 17.238zm-86.172 34.469 43.086-17.234-43.086-17.23zm60.32-60.32-17.234 43.086 43.086-17.234zm-34.469 86.172 17.234-43.086-43.086 17.234zm60.32-25.852-25.852 25.852 25.852 25.852zm-86.172 51.703 25.852-25.852-25.852-25.852zm146.5 60.32-17.238-43.086-17.23 43.086zm-34.469-86.172 17.23 43.086 17.238-43.086zm60.32 60.32-43.09-17.234 17.238 43.086zm-86.176-34.469 43.086 17.234-17.23-43.086zm86.176 0-43.09 17.234 43.09 17.238zm-86.176 34.469 43.086-17.234-43.086-17.23zm60.324-60.32-17.238 43.086 43.09-17.234zm-34.469 86.172 17.23-43.086-43.086 17.234zm34.469-86.172-17.238-43.086-17.23 43.086zm-34.469-86.172 17.23 43.086 17.238-43.086zm60.32 60.32-43.09-17.234 17.238 43.086zm-86.176-34.469 43.086 17.234-17.23-43.086zm86.176 0-43.09 17.234 43.09 17.238zm-86.176 34.469 43.086-17.234-43.086-17.23zm60.324-60.32-17.238 43.086 43.09-17.234zm-34.469 86.172 17.23-43.086-43.086 17.234zm60.32-25.852-25.852 25.852 25.852 25.852zm-172.35-34.469 25.852-25.852-25.852-25.852zm172.35-51.703-25.852 25.852 25.852 25.852zm-86.176 137.88 25.855-25.852-25.855-25.852zm0-137.88-25.852 25.852 25.852 25.852zm0 51.703 25.855-25.852-25.855-25.852zm-25.852-25.852-17.234-43.086-17.234 43.086zm-34.469-86.172 17.234 43.086 17.234-43.086zm60.32 60.32-43.086-17.234 17.234 43.086zm-86.172-34.469 43.086 17.234-17.234-43.086zm86.172 0-43.086 17.234 43.086 17.238zm-86.172 34.469 43.086-17.234-43.086-17.234zm60.32-60.32-17.234 43.086 43.086-17.234zm-34.469 86.172 17.234-43.086-43.086 17.234zm34.469-86.172-17.234-43.086-17.234 43.086zm-34.469-86.172 17.234 43.086 17.234-43.086zm60.32 60.32-43.086-17.234 17.234 43.086zm-86.172-34.469 43.086 17.234-17.234-43.086zm86.172 0-43.086 17.234 43.086 17.238zm-86.172 34.469 43.086-17.234-43.086-17.234zm60.32-60.32-17.234 43.086 43.086-17.234zm-34.469 86.172 17.234-43.086-43.086 17.234zm60.32-25.852-25.852 25.852 25.852 25.852zm-86.172 51.703 25.852-25.852-25.852-25.852zm146.5 60.32-17.238-43.086-17.23 43.086zm-34.469-86.172 17.23 43.086 17.238-43.086zm60.32 60.32-43.09-17.234 17.238 43.086zm-86.176-34.469 43.086 17.234-17.23-43.086zm86.176 0-43.09 17.234 43.09 17.238zm-86.176 34.469 43.086-17.234-43.086-17.234zm60.324-60.32-17.238 43.086 43.09-17.234zm-34.469 86.172 17.23-43.086-43.086 17.234zm34.469-86.172-17.238-43.086-17.23 43.086zm-34.469-86.172 17.23 43.086 17.238-43.086zm60.32 60.32-43.09-17.234 17.238 43.086zm-86.176-34.469 43.086 17.234-17.23-43.086zm86.176 0-43.09 17.234 43.09 17.238zm-86.176 34.469 43.086-17.234-43.086-17.234zm60.324-60.32-17.238 43.086 43.09-17.234zm-34.469 86.172 17.23-43.086-43.086 17.234zm60.32-25.852-25.852 25.852 25.852 25.852zm-172.35-34.469 25.852-25.852-25.852-25.852zm172.35-51.703-25.852 25.852 25.852 25.852zm-86.176 137.88 25.855-25.852-25.855-25.852zm0-137.88-25.852 25.852 25.852 25.852zm0 51.703 25.855-25.852-25.855-25.852zm-198.2 318.84-17.234-43.086-17.234 43.086z" fill="none" stroke="#fff" stroke-miterlimit="10" stroke-width=".516"/>
   <path transform="matrix(1 0 0 -1 23.534 29.659)" d="m9.5625e-4 -9.5625e-4 17.23 43.086 17.234-43.086zm60.312 60.32-43.082-17.234 17.234 43.086zm-86.164-34.469 43.082 17.234-17.23-43.086zm86.164 0-43.082 17.234 43.082 17.238zm-86.164 34.469 43.082-17.234-43.082-17.23zm60.316-60.32-17.234 43.086 43.082-17.234zm-34.465 86.172 17.23-43.086-43.082 17.234zm34.465-86.172-17.234-43.086-17.23 43.086zm-34.465-86.172 17.23 43.086 17.234-43.086zm60.312 60.32-43.082-17.234 17.234 43.086zm-86.164-34.469 43.082 17.234-17.23-43.086zm86.164 0-43.082 17.234 43.082 17.238zm-86.164 34.469 43.082-17.234-43.082-17.23zm60.316-60.32-17.234 43.086 43.082-17.234zm-34.465 86.172 17.23-43.086-43.082 17.234zm60.312-25.852-25.848 25.852 25.848 25.852zm60.316 112.02-17.234-43.086-17.23 43.086zm-34.465-86.172 17.23 43.086 17.234-43.086zm60.312 60.32-43.082-17.234 17.234 43.086zm-86.164-34.469 43.082 17.234-17.23-43.086zm86.164 0-43.082 17.234 43.082 17.238zm-86.164 34.469 43.082-17.234-43.082-17.23zm60.316-60.32-17.234 43.086 43.082-17.234zm-34.465 86.172 17.23-43.086-43.082 17.234zm34.465-86.172-17.234-43.086-17.23 43.086zm-34.465-86.172 17.23 43.086 17.234-43.086zm60.312 60.32-43.082-17.234 17.234 43.086zm-86.164-34.469 43.082 17.234-17.23-43.086zm86.164 0-43.082 17.234 43.082 17.238zm-86.164 34.469 43.082-17.234-43.082-17.23zm60.316-60.32-17.234 43.086 43.082-17.234zm-34.465 86.172 17.23-43.086-43.082 17.234zm60.312-25.852-25.848 25.852 25.848 25.852zm0-86.172-25.848 25.852 25.848 25.852zm-86.164 137.88 25.852-25.852-25.852-25.852zm0-137.88-25.848 25.852 25.848 25.852zm0 51.703 25.852-25.852-25.852-25.852zm-25.848-25.852-17.234-43.086-17.23 43.086zm-34.465-86.172 17.23 43.086 17.234-43.086zm60.312 60.32-43.082-17.234 17.234 43.086zm-86.164-34.469 43.082 17.234-17.23-43.086zm86.164 0-43.082 17.234 43.082 17.238zm-86.164 34.469 43.082-17.234-43.082-17.23zm60.316-60.32-17.234 43.086 43.082-17.234zm-34.465 86.172 17.23-43.086-43.082 17.234zm34.465-86.172-17.234-43.086-17.23 43.086zm-34.465-86.172 17.23 43.086 17.234-43.086zm60.312 60.32-43.082-17.234 17.234 43.086zm-86.164-34.469 43.082 17.234-17.23-43.086zm86.164 0-43.082 17.234 43.082 17.238zm-86.164 34.469 43.082-17.234-43.082-17.23zm60.316-60.32-17.234 43.086 43.082-17.234zm-34.465 86.172 17.23-43.086-43.082 17.234zm60.312-25.852-25.848 25.852 25.848 25.852zm60.316 112.02-17.234-43.086-17.23 43.086zm-34.465-86.172 17.23 43.086 17.234-43.086zm60.312 60.32-43.082-17.234 17.234 43.086zm-86.164-34.469 43.082 17.234-17.23-43.086zm86.164 0-43.082 17.234 43.082 17.238zm-86.164 34.469 43.082-17.234-43.082-17.23zm60.316-60.32-17.234 43.086 43.082-17.234zm-34.465 86.172 17.23-43.086-43.082 17.234zm34.465-86.172-17.234-43.086-17.23 43.086zm-34.465-86.172 17.23 43.086 17.234-43.086zm60.312 60.32-43.082-17.234 17.234 43.086zm-86.164-34.469 43.082 17.234-17.23-43.086zm86.164 0-43.082 17.234 43.082 17.238zm-86.164 34.469 43.082-17.234-43.082-17.23zm60.316-60.32-17.234 43.086 43.082-17.234zm-34.465 86.172 17.23-43.086-43.082 17.234zm60.312-25.852-25.848 25.852 25.848 25.852zm0-86.172-25.848 25.852 25.848 25.852zm-86.164 137.88 25.852-25.852-25.852-25.852zm0-137.88-25.848 25.852 25.848 25.852zm0 51.703 25.852-25.852-25.852-25.852zm146.48-25.852-17.234-43.086-17.23 43.086zm-34.465-86.172 17.23 43.086 17.234-43.086zm60.312 60.32-43.082-17.234 17.234 43.086zm-86.164-34.469 43.082 17.234-17.23-43.086zm86.164 0-43.082 17.234 43.082 17.238zm-86.164 34.469 43.082-17.234-43.082-17.234zm60.316-60.32-17.234 43.086 43.082-17.234zm-34.465 86.172 17.23-43.086-43.082 17.234zm34.465-86.172-17.234-43.086-17.23 43.086zm-34.465-86.172 17.23 43.086 17.234-43.086zm60.312 60.32-43.082-17.234 17.234 43.086zm-86.164-34.469 43.082 17.234-17.23-43.086zm86.164 0-43.082 17.234 43.082 17.234zm-86.164 34.469 43.082-17.234-43.082-17.234zm60.316-60.32-17.234 43.086 43.082-17.234zm-34.465 86.172 17.23-43.086-43.082 17.234zm60.312-25.852-25.848 25.852 25.848 25.852zm-86.164 51.703 25.852-25.852-25.852-25.852zm146.48 60.32-17.234-43.086-17.23 43.086zm-34.465-86.172 17.23 43.086 17.234-43.086zm60.312 60.32-43.082-17.234 17.234 43.086zm-86.164-34.469 43.082 17.234-17.23-43.086zm86.164 0-43.082 17.234 43.082 17.238zm-86.164 34.469 43.082-17.234-43.082-17.234zm60.316-60.32-17.234 43.086 43.082-17.234zm-34.465 86.172 17.23-43.086-43.082 17.234zm34.465-86.172-17.234-43.086-17.23 43.086zm-34.465-86.172 17.23 43.086 17.234-43.086zm60.312 60.32-43.082-17.234 17.234 43.086zm-86.164-34.469 43.082 17.234-17.23-43.086zm86.164 0-43.082 17.234 43.082 17.234zm-86.164 34.469 43.082-17.234-43.082-17.234zm60.316-60.32-17.234 43.086 43.082-17.234zm-34.465 86.172 17.23-43.086-43.082 17.234zm60.312-25.852-25.848 25.852 25.848 25.852zm-172.33-34.469 25.852-25.852-25.852-25.852zm172.33-51.703-25.848 25.852 25.848 25.852zm-86.164 137.88 25.852-25.852-25.852-25.852zm0-137.88-25.848 25.852 25.848 25.852zm0 51.703 25.852-25.852-25.852-25.852zm-25.848-25.852-17.234-43.086-17.23 43.086zm-34.465-86.172 17.23 43.086 17.234-43.086zm60.312 60.32-43.082-17.234 17.234 43.086zm-86.164-34.469 43.082 17.234-17.23-43.086zm86.164 0-43.082 17.234 43.082 17.234zm-86.164 34.469 43.082-17.234-43.082-17.234zm60.316-60.32-17.234 43.086 43.082-17.234zm-34.465 86.172 17.23-43.086-43.082 17.234zm34.465-86.172-17.234-43.086-17.23 43.086zm-34.465-86.172 17.23 43.086 17.234-43.086zm60.312 60.32-43.082-17.234 17.234 43.086zm-86.164-34.469 43.082 17.234-17.23-43.086zm86.164 0-43.082 17.234 43.082 17.234zm-86.164 34.469 43.082-17.234-43.082-17.234zm60.316-60.32-17.234 43.086 43.082-17.234zm-34.465 86.172 17.23-43.086-43.082 17.234zm60.312-25.852-25.848 25.852 25.848 25.852zm-86.164 51.703 25.852-25.852-25.852-25.852zm146.48 60.32-17.234-43.086-17.23 43.086zm-34.465-86.172 17.23 43.086 17.234-43.086zm60.312 60.32-43.082-17.234 17.234 43.086zm-86.164-34.469 43.082 17.234-17.23-43.086zm86.164 0-43.082 17.234 43.082 17.234zm-86.164 34.469 43.082-17.234-43.082-17.234zm60.316-60.32-17.234 43.086 43.082-17.234zm-34.465 86.172 17.23-43.086-43.082 17.234zm34.465-86.172-17.234-43.086-17.23 43.086zm-34.465-86.172 17.23 43.086 17.234-43.086zm60.312 60.32-43.082-17.234 17.234 43.086zm-86.164-34.469 43.082 17.234-17.23-43.086zm86.164 0-43.082 17.234 43.082 17.234zm-86.164 34.469 43.082-17.234-43.082-17.234zm60.316-60.32-17.234 43.086 43.082-17.234zm-34.465 86.172 17.23-43.086-43.082 17.234zm60.312-25.852-25.848 25.852 25.848 25.852zm-86.164 51.703 25.852-25.852-25.852-25.852zm-198.18 232.66-17.234-43.086-17.23 43.086zm-34.465-86.172 17.23 43.086 17.234-43.086zm60.312 60.32-43.082-17.234 17.234 43.086zm-86.164-34.469 43.082 17.234-17.23-43.086zm86.164 0-43.082 17.234 43.082 17.238zm-86.164 34.469 43.082-17.234-43.082-17.234zm60.316-60.32-17.234 43.086 43.082-17.234zm-34.465 86.172 17.23-43.086-43.082 17.234zm34.465-86.172-17.234-43.086-17.23 43.086zm-34.465-86.172 17.23 43.086 17.234-43.086zm60.312 60.32-43.082-17.234 17.234 43.086zm-86.164-34.469 43.082 17.234-17.23-43.086zm86.164 0-43.082 17.234 43.082 17.234zm-86.164 34.469 43.082-17.234-43.082-17.234zm60.316-60.32-17.234 43.086 43.082-17.234zm-34.465 86.172 17.23-43.086-43.082 17.234zm60.312-25.852-25.848 25.852 25.848 25.852zm60.316 112.02-17.234-43.086-17.23 43.086zm-34.465-86.172 17.23 43.086 17.234-43.086zm60.312 60.32-43.082-17.234 17.234 43.086zm-86.164-34.469 43.082 17.234-17.23-43.086zm86.164 0-43.082 17.234 43.082 17.238zm-86.164 34.469 43.082-17.234-43.082-17.234zm60.316-60.32-17.234 43.086 43.082-17.234zm-34.465 86.172 17.23-43.086-43.082 17.234zm34.465-86.172-17.234-43.086-17.23 43.086zm-34.465-86.172 17.23 43.086 17.234-43.086zm60.312 60.32-43.082-17.234 17.234 43.086zm-86.164-34.469 43.082 17.234-17.23-43.086zm86.164 0-43.082 17.234 43.082 17.234zm-86.164 34.469 43.082-17.234-43.082-17.234zm60.316-60.32-17.234 43.086 43.082-17.234zm-34.465 86.172 17.23-43.086-43.082 17.234zm60.312-25.852-25.848 25.852 25.848 25.852zm0-86.172-25.848 25.852 25.848 25.852zm-86.164 137.88 25.852-25.852-25.852-25.852zm0-137.88-25.848 25.852 25.848 25.852zm0 51.703 25.852-25.852-25.852-25.852zm-25.848-25.852-17.234-43.086-17.23 43.086zm-34.465-86.172 17.23 43.086 17.234-43.086zm60.312 60.32-43.082-17.234 17.234 43.086zm-86.164-34.469 43.082 17.234-17.23-43.086zm86.164 0-43.082 17.234 43.082 17.234zm-86.164 34.469 43.082-17.234-43.082-17.234zm60.316-60.32-17.234 43.086 43.082-17.234zm-34.465 86.172 17.23-43.086-43.082 17.234zm34.465-86.172-17.234-43.086-17.23 43.086zm-34.465-86.172 17.23 43.086 17.234-43.086zm60.312 60.32-43.082-17.234 17.234 43.086z" fill="none" stroke="#fff" stroke-miterlimit="10" stroke-width=".516"/>
   <path transform="matrix(1 0 0 -1 -2.3066 607.01)" d="m0.0019125 8.8125e-4 43.082 17.234-17.234-43.086zm86.168 0-43.086 17.234 43.086 17.238zm-86.168 34.469 43.082-17.234-43.082-17.234zm60.316-60.32-17.234 43.086 43.086-17.234zm-34.469 86.172 17.234-43.086-43.082 17.234zm60.32-25.852-25.852 25.852 25.852 25.852zm60.316 112.03-17.234-43.086-17.234 43.086zm-34.469-86.176 17.234 43.09 17.234-43.09zm60.32 60.324-43.086-17.234 17.234 43.086zm-86.168-34.473 43.082 17.238-17.234-43.09zm86.168 0.003907-43.086 17.234 43.086 17.234zm-86.168 34.469 43.082-17.234-43.082-17.234zm60.316-60.324-17.234 43.086 43.086-17.234zm-34.469 86.176 17.234-43.09-43.082 17.238zm34.469-86.176-17.234-43.086-17.234 43.086zm-34.469-86.172 17.234 43.086 17.234-43.086zm60.32 60.32-43.086-17.234 17.234 43.086zm-86.168-34.469 43.082 17.234-17.234-43.086zm86.168 0-43.086 17.234 43.086 17.238zm-86.168 34.469 43.082-17.234-43.082-17.234zm60.316-60.32-17.234 43.086 43.086-17.234zm-34.469 86.172 17.234-43.086-43.082 17.234zm60.32-25.852-25.852 25.852 25.852 25.852zm-86.168 51.703 25.848-25.852-25.848-25.852zm491.16-112.02 25.852 25.852 25.852-25.852zm-86.168 0 25.852 25.852 25.848-25.852zm-86.168 0 25.852 25.852 25.848-25.852zm-86.172 0 25.855 25.852 25.848-25.852zm-86.168 0 25.852 25.852 25.852-25.852zm-86.168 0 25.852 25.852 25.852-25.852zm-86.168 0 25.852 25.852 25.848-25.852zm-86.168 0 25.852 25.852 25.848-25.852zm137.87 689.39-25.848-25.852-25.852 25.852zm-86.273 0-25.852-25.852-25.848 25.852zm172.45 0-25.852-25.852-25.852 25.852zm86.168 0-25.852-25.852-25.852 25.852zm86.168 0-25.852-25.852-25.852 25.852zm86.168 0-25.848-25.852-25.852 25.852zm86.168 0-25.848-25.852-25.852 25.852zm86.172 0-25.852-25.852-25.852 25.852z" fill="none" stroke="#fff" stroke-miterlimit="10" stroke-width=".516"/>
  </g>
 </defs>
 <rect width="684" height="576" fill="#C2B9A7"/>
 <use mask="url(#mask0)" xlink:href="#surface17744"/>
</svg>
