<?xml version="1.0" encoding="UTF-8"?>
<svg width="433" height="200" version="1.1" viewBox="0 0 1752 809.54" xml:space="preserve" xmlns="http://www.w3.org/2000/svg" xmlns:cc="http://creativecommons.org/ns#" xmlns:dc="http://purl.org/dc/elements/1.1/" xmlns:rdf="http://www.w3.org/1999/02/22-rdf-syntax-ns#"><metadata><rdf:RDF><cc:Work rdf:about=""><dc:format>image/svg+xml</dc:format><dc:type rdf:resource="http://purl.org/dc/dcmitype/StillImage"/><dc:title/></cc:Work></rdf:RDF></metadata><g transform="matrix(1.3333 0 0 -1.3333 0 809.54)"><g transform="translate(418.46 342.4)"><path d="m0 0-75.898 18.305 136.49 13.351zm74.058-27.421 19.242 7.609 21.762 8.596-17.231-44.802-4.971-12.926zm22.213-49.076 30.452 4.465-18.154-31.643zm42.773-201.14 14.781 37.718 3.228-11.309 18.164-63.861zm52.903-44.953 44.311 9.768v-15.923zm93.194 0-44.319-6.155v15.923zm52.902 44.953-35.764-37.049 22.423 71.071zm12.668 134.63-46.529 31.45 61.106 0.753zm17.804 39.324-18.154 31.643 30.463-4.465zm34.519 76.254-18.805-41.523-4.972 12.926-17.226 44.802 21.757-8.596zm74.047 27.421-60.587 31.656 136.49-13.351zm86.856 102.22 49.501 39.668 135.83 108.79 36.717-36.209zm314.49 96.188-84.376 16.833 34.066 35.212zm-123.68 53.076h68.225l-33.314-34.421zm-19.921-6.761-74.558-59.705-113.12-90.608-23.564 55.986zm-494-70.518h77.654l-77.654-47.567zm-498.57 70.518 211.25-94.327-23.562-55.986-113.12 90.608zm-19.913 6.761-34.905-34.421-33.331 34.421zm-73.367-1.031 34.065-35.212-84.376-16.833zm264.19-148.23-222.06 112.25 36.712 36.209 135.84-108.79zm27.15-9.693 159.92 68.288-30.696-74.618zm23.307-8.138 90.791-2.156-133.01-31.472zm110.34-86.165-0.268 36.649-0.281 39.8 41.724-79.598zm-0.535-21.257 0.474 16.973 35.606-2.716zm54.797-124 42.862 28.996-3.677-5.225-30.387-43.21zm210.16-119.03-11.709 29.823-1.017 4.747 12.603 44.296zm10.498 119.03-8.799-19.439-30.41 43.21-3.668 5.225zm54.775 124-36.068 14.257 35.602 2.716zm-0.255 57.906-0.263-36.649-41.196-3.149 41.739 79.598zm110.07 49.516 42.212-33.628-132.99 31.472zm23.316 8.138-129.23-6.33-30.686 74.618zm-150.67 69.042 132.97-12.111 22.929-54.485zm-51.442 10.467 36.361-8.902 13.545-32.95zm-176.06 2.169h77.65v-47.567zm-52.545-11.071 36.358 8.902-49.902-41.852zm-148.06-13.676 132.99 12.111-155.92-66.596zm110.78-68.213v-32.683h-137.97zm-98.084-54.084 98.163 16.722 0.213-7.107zm141.41-133.69 19.447 33.905 42.124-34.659-24.053 0.304zm37.695-102.68-10.778 37.855 36.364 51.669-10.101-48.53-11.47-55.119zm84.673-25.768-53.817-82.717-23.514 82.717zm84.398-3.738-22.459-78.979-53.694 82.525zm8.389 29.506-3.642-12.813-21.846 102.21 36.271-51.544zm179.11 236.37-98.365 9.615 0.207 7.107zm-98.081 54.084 137.98-32.683h-137.98zm-63.467 76.529 39.313-32.954h-55.732v46.734zm-20.988 14.618v-47.572h-77.649zm-170.61 0 77.649-47.572h-77.649zm-20.969-14.618 16.421 13.78v-46.734h-55.734zm-58.723-73.684 12.893 31.314 25.876-105.24zm57.625-142.7-9.209 47.73 108.16-43.069-97.364-12.908zm37.655-114.98 11.872 57.045 29.143-61.036-51.992-48.814zm43.003-8.18 23.215-48.94h-75.36zm134.1 123.16-1.597-8.247-97.349 12.908 108.15 43.069zm18.848 68.771 25.878 105.24 12.875-31.314zm-185.04-116.74-43.604 35.863 95.922 12.701zm113.42-16.73 3.232 6.77 23.43-112.64-52.595 51.572zm47.791 52.593-43.612-35.863-52.308 48.564zm-100.13 187.07 51.834-63.81h-51.834zm-120.56-119.45-29.544 120.1 85.744-66.733-9.871-9.381zm113.32-47.59-110.63 44.068 56.299 53.455 41.206-73.952zm-44.289 88.757-5.686 10.209h52.654v-94.552zm46.968-130.85-48.654-12.505 48.654 45.174zm0-54.415-51.38 36.775 51.38 13.212zm55.954 36.775-51.39-36.775v49.987zm-51.39 50.309 48.653-45.174-48.653 12.505zm-4.564 112.66h-51.825l51.825 63.81zm51.554-14.477-46.99-84.343v94.552h52.672zm66.33-44.689-110.62-44.068 13.117 23.571 41.198 73.952zm-43.646 47.504-9.875 9.381 85.749 66.733-29.543-120.1zm-95.865-218.06-22.532 47.249-6.528 13.629 37.086-26.536 13.601-9.749v-69.882l-21.508 45.061-0.119 0.224zm104.25-57.259-76.899 3.565 23.244 49.048zm-56.546 57.031-21.511-45.061v69.882l13.61 9.749 37.077 26.536-6.512-13.629-22.55-47.249v-4e-3zm-28.39 297.94-54.482-67.061-37.938 29.524-48.228 37.537h57.664zm149.84 0-86.157-67.061-54.482 67.061h82.976zm-91.314-440.35-51.652 11.389v67.969zm-56.216 11.389-51.651-11.389 51.651 79.358zm327.19 330.19-132.16 22.531h131.14l0.282-6.485zm-210.77-89.811-3.848 0.559 1.565 8.043 8.457 43.875 21.748-56.572zm-25.219-38.937-24.064-0.304 42.137 34.659 19.432-33.905zm-230.98 34.842 21.752 56.572 8.461-43.875 1.565-8.043-3.85-0.559zm-182.1 109.95 0.275 6.485h131.14l-132.16-22.531zm224.33-303.88 0.119 78.866 12.962-45.547zm-26.909 155.27 61.097-0.753-46.518-31.45zm-151.62 198.08-49.181-39.208-0.783-1.555-1.242-27.244 1.724-2.16 89.053-21.47 1.677 0.21 67.73 35.381 0.249-34.964-0.63-22.919 65.517-144.76-0.144-106.68 0.303-0.05 0.286-1.392 43.917-45.545 59.883-8.312 59.878 8.318 43.928 45.539 0.295 1.392 0.291 0.05-0.151 106.68 65.539 144.69-0.389 57.961 67.731-35.381 1.672-0.21 89.066 21.47 1.716 2.16-1.239 27.244-0.785 1.555-49.178 39.208 29.925 1.472 243.2 122.93 94.332-18.825 2.164 3.518-57.336 59.383h-80.31l-228.62-102.11-147.15 13.399-46.721 11.416-175.76 0.04-46.68-11.456-147.18-13.399-228.63 102.11h-80.252l-57.369-59.383 2.17-3.518 94.342 18.825 243.17-122.93z" fill="#E0C6B7"/></g></g></svg>
